<?xml version="1.0" encoding="utf-8"?>
<svg viewBox="0 0 1280 853" xmlns="http://www.w3.org/2000/svg">
  <g transform="matrix(0.10000000149011612, 0, 0, -0.10000000149011612, 0, 853)" fill="#000000" stroke="none">
    <path d="M5440 8167 c0 -347 -1 -365 -21 -402 -26 -50 -20 -98 17 -136 36 -38 82 -46 128 -24 67 32 85 105 41 169 l-25 37 0 359 0 360 -70 0 -70 0 0 -363z m95 -462 c0 -13 -8 -21 -22 -23 -17 -3 -23 2 -23 16 0 10 3 22 7 26 13 13 38 1 38 -19z" style="fill: rgb(155, 155, 155, 0.1);"/>
    <path d="M5889 8128 l0 -403 -299 -310 -299 -310 -1 -541 0 -541 -77 -66 c-43 -36 -105 -93 -138 -126 l-59 -61 -483 0 -483 0 -417 400 -416 400 -1609 0 -1608 0 0 -65 0 -65 1579 0 1579 0 422 -405 422 -405 448 -2 449 -3 -56 -82 -57 -83 -535 0 -536 1 -305 295 c-168 162 -339 325 -380 362 l-75 67 -1477 -3 -1478 -2 0 -60 0 -60 1458 0 1457 -1 375 -359 374 -360 528 0 c291 0 528 -2 528 -5 0 -3 -10 -25 -22 -48 -11 -23 -38 -87 -59 -142 l-38 -100 -788 -3 -788 -2 -29 21 c-106 79 -235 -35 -167 -147 35 -57 125 -70 166 -24 18 20 33 20 793 20 l774 0 -6 -32 c-3 -18 -13 -86 -23 -150 l-18 -118 -635 0 -635 -1 -374 -359 -374 -360 -1248 0 -1249 0 0 -60 0 -60 1278 1 1277 0 373 360 373 359 603 0 603 0 6 -144 c4 -79 10 -157 13 -175 l7 -31 -339 0 c-282 1 -342 3 -358 15 -44 33 -125 13 -156 -37 -25 -42 -25 -74 0 -116 39 -63 124 -76 171 -26 l22 24 341 0 341 0 24 -87 c19 -72 59 -185 106 -305 7 -17 -34 -18 -767 -18 -521 0 -777 3 -784 10 -8 8 -19 8 -38 0 -17 -6 -188 -10 -469 -10 l-442 0 -380 -365 -380 -365 -712 0 -713 0 0 -60 0 -60 739 0 739 0 373 360 374 359 1273 1 c884 0 1272 -3 1272 -11 0 -15 104 -170 171 -255 33 -40 59 -76 59 -79 0 -3 -570 -5 -1268 -5 l-1268 0 -374 -360 -375 -359 -857 -1 -858 0 0 -60 0 -60 884 0 883 0 374 360 374 359 1303 1 1303 0 35 -27 c18 -16 34 -31 34 -35 0 -5 -60 -8 -134 -8 l-133 0 -313 -300 -313 -300 -393 0 c-216 0 -399 -3 -408 -6 -14 -6 -16 -68 -16 -603 l-1 -596 -299 -310 -299 -310 -1 -247 c0 -159 4 -248 10 -248 6 0 10 88 10 245 l0 245 300 312 300 312 2 596 3 595 403 3 404 2 311 300 312 300 137 0 137 0 50 -37 51 -38 -176 -3 -176 -2 -311 -300 -312 -300 -382 0 -383 0 0 -575 0 -575 -300 -312 -300 -312 0 -228 c0 -145 4 -228 10 -228 6 0 10 83 10 228 l1 227 299 310 299 310 1 573 0 572 379 0 379 0 308 295 308 295 188 0 188 0 0 -951 0 -951 -97 -103 c-54 -56 -189 -197 -300 -313 l-203 -210 0 -141 0 -141 55 0 55 0 1 123 0 122 299 310 300 310 0 936 0 937 133 -68 c72 -37 171 -82 220 -100 l87 -33 0 -681 -1 -681 -299 -310 -299 -310 -1 -277 0 -278 55 0 55 0 0 256 0 257 213 221 c118 121 253 262 300 313 l87 92 0 684 0 684 98 -19 c53 -11 107 -21 120 -24 l22 -4 0 -514 0 -513 81 -87 81 -86 -201 -207 -201 -208 0 -422 0 -423 55 0 55 0 0 403 1 402 183 189 182 190 135 -140 c74 -76 156 -162 182 -190 l47 -51 2 -399 3 -399 53 -3 52 -3 0 424 0 424 -200 209 -200 209 80 80 80 80 0 518 0 517 40 0 40 0 0 -664 0 -665 300 -312 300 -313 0 -253 0 -253 55 0 55 0 0 273 0 274 -300 313 -300 312 0 658 0 657 38 7 c20 3 47 9 60 12 l22 6 0 -568 0 -569 300 -312 300 -312 0 -375 0 -376 55 0 55 0 -1 398 0 397 -299 310 -300 310 0 566 0 567 28 7 c51 13 236 96 317 142 102 59 210 131 280 188 l55 45 658 0 658 0 414 -399 415 -400 1423 0 1422 -1 0 65 0 65 -1392 1 -1393 0 -420 404 -420 405 -609 0 -609 0 37 43 c20 23 51 61 68 85 l32 42 682 0 683 0 373 -359 373 -360 1298 0 1297 -1 0 60 0 60 -1269 0 -1268 0 -374 360 -374 359 -662 1 c-365 0 -663 3 -663 6 0 3 21 43 47 90 l47 84 372 0 373 0 38 -26 c50 -34 103 -29 147 15 66 66 25 175 -70 188 -31 4 -47 -1 -77 -21 l-38 -26 -339 0 c-206 0 -340 4 -340 9 0 6 12 42 26 80 l26 71 795 0 c780 0 795 0 820 -20 35 -27 102 -27 136 1 15 11 32 37 38 58 30 101 -87 185 -172 122 -28 -21 -32 -21 -805 -21 l-776 0 5 23 c3 12 9 39 12 60 l7 37 733 0 732 0 374 360 374 359 1063 1 1062 0 0 60 0 60 -1057 1 c-582 0 -1067 2 -1077 4 -11 2 -27 0 -35 -5 -9 -4 -182 -168 -386 -364 l-370 -355 -695 -1 -695 0 0 228 c0 172 -5 250 -18 322 -19 104 -50 230 -73 298 -8 23 -14 45 -14 47 0 3 588 5 1306 5 l1306 0 246 237 c136 130 306 295 378 365 l132 128 526 0 526 0 0 60 0 60 -552 0 -553 -1 -374 -359 -375 -360 -1310 0 -1311 0 -45 91 c-25 50 -68 128 -97 173 l-52 81 1293 5 1293 5 372 358 372 357 669 0 670 0 0 60 0 60 -697 0 -698 -1 -374 -359 -374 -360 -1308 0 -1307 0 -111 113 -111 112 0 305 0 305 -300 310 -299 310 0 683 -1 682 -55 0 -55 0 0 -702 1 -703 299 -310 299 -310 1 -237 c0 -131 -2 -238 -4 -238 -2 0 -48 30 -103 66 -141 95 -306 173 -478 229 -82 26 -156 49 -162 51 -10 3 -13 84 -13 366 l0 364 -71 69 c-39 39 -93 96 -121 127 l-50 58 81 90 81 90 0 495 0 495 -55 0 -55 0 0 -477 -1 -478 -65 -70 -66 -69 -138 144 -139 145 -1 403 0 402 -55 0 -55 0 0 -421 0 -422 156 -163 156 -164 -130 -138 c-72 -75 -160 -166 -196 -202 l-66 -64 0 -278 0 -278 -27 -6 c-280 -64 -464 -133 -655 -247 l-78 -46 0 481 0 481 188 195 c103 107 238 248 300 313 l112 119 0 420 0 420 -55 0 -55 0 -1 -402z m844 -955 l107 -108 0 -334 0 -333 -32 5 c-106 18 -323 28 -425 20 l-113 -8 0 247 0 247 178 185 c97 102 177 186 178 186 0 0 49 -48 107 -107z m1067 -921 c0 -313 2 -303 -47 -259 -23 20 -23 24 -23 267 l0 247 -147 154 c-80 85 -185 195 -232 244 -66 69 -56 61 44 -35 71 -69 126 -121 122 -116 -4 5 -1 17 7 25 13 15 2 30 -106 146 -66 72 -8 15 130 -125 l251 -255 1 -293z m-917 156 c35 -22 37 -12 40 215 l2 222 3 -227 c2 -219 1 -228 -17 -228 -52 0 -51 -5 -49 244 l3 231 2 -225 c3 -164 7 -226 16 -232z m4722 2 c13 -6 -17 -9 -85 -10 l-105 -1 -375 -359 -375 -360 -175 -2 c-96 -1 -142 -4 -102 -5 l74 -4 -24 -19 c-14 -10 -44 -20 -69 -23 -24 -2 42 -4 146 -5 l190 -1 374 359 374 360 286 -2 286 -3 -287 -5 -286 -5 -372 -355 -371 -355 -312 -5 c-172 -3 -753 -6 -1293 -8 l-980 -2 -33 45 -32 45 1303 0 1303 1 379 364 379 365 81 -1 c45 0 90 -4 101 -9z m-5062 -7 c-24 -2 -62 -2 -85 0 -24 2 -5 4 42 4 47 0 66 -2 43 -4z m-206 -9 c-3 -3 -12 -4 -19 -1 -8 3 -5 6 6 6 11 1 17 -2 13 -5z m366 -1 c-13 -2 -35 -2 -50 0 -16 2 -5 4 22 4 28 0 40 -2 28 -4z m100 -9 l37 -7 0 -53 c0 -62 15 -59 -150 -39 l-115 14 95 -5 c52 -2 110 -7 128 -10 l32 -6 0 45 0 45 -52 10 c-29 5 -44 10 -33 11 11 0 37 -2 58 -5z m343 -85 c66 -22 177 -68 245 -102 117 -59 285 -163 309 -192 6 -8 10 -43 8 -84 l-3 -70 -65 51 c-181 141 -404 256 -616 318 l-71 21 -1 58 0 59 36 -10 c21 -5 91 -27 158 -49z m-869 -1 c-2 -13 -4 -5 -4 17 -1 22 1 32 4 23 2 -10 2 -28 0 -40z m121 -5 c-10 -2 -28 -2 -40 0 -13 2 -5 4 17 4 22 1 32 -1 23 -4z m385 -38 c312 -47 631 -190 878 -391 101 -83 266 -258 341 -364 81 -113 205 -358 248 -487 68 -204 90 -369 85 -623 -5 -289 -49 -480 -170 -736 -262 -556 -792 -951 -1396 -1039 -123 -17 -375 -20 -499 -4 -437 54 -860 280 -1152 614 -172 196 -308 441 -382 685 -109 364 -99 779 29 1140 57 159 171 366 284 515 123 162 347 359 516 455 248 141 506 224 775 250 107 11 322 3 443 -15z m1157 -464 l69 -76 -76 -3 c-103 -4 -113 5 -113 110 l0 78 25 -16 c14 -9 56 -51 95 -93z m221 -284 c52 -81 123 -210 133 -244 7 -22 5 -23 -56 -23 l-63 0 -46 88 c-26 48 -72 122 -103 165 -31 43 -56 80 -56 83 0 2 33 4 73 4 l72 0 46 -73z m2024 -297 c-242 -3 -420 -7 -395 -8 l45 -3 -28 -24 c-19 -17 -42 -26 -70 -27 -23 -2 127 -5 333 -8 240 -3 2 -6 -661 -8 l-1037 -2 -16 40 c-9 22 -16 43 -16 45 0 3 514 4 1143 3 761 -2 995 -4 702 -8z m-5428 -125 c-10 -34 -11 -35 -61 -33 l-51 2 47 3 c41 4 48 7 57 34 14 41 21 36 8 -6z m3627 -57 c63 -208 86 -366 86 -597 0 -99 -3 -186 -6 -195 -5 -12 -20 -16 -60 -16 l-53 0 6 133 c10 223 -22 454 -90 657 l-33 100 63 0 62 0 25 -82z m-5436 -56 c3 -18 -1 -22 -22 -22 -19 0 -26 5 -26 18 0 39 43 43 48 4z m1622 -32 c0 -6 -26 -9 -62 -8 l-63 1 60 7 c33 4 61 7 63 8 1 1 2 -2 2 -8z m17 -62 c-3 -8 -6 -5 -6 6 -1 11 2 17 5 13 3 -3 4 -12 1 -19z m100 -20 c-3 -8 -6 -5 -6 6 -1 11 2 17 5 13 3 -3 4 -12 1 -19z m-110 -20 c-3 -8 -6 -5 -6 6 -1 11 2 17 5 13 3 -3 4 -12 1 -19z m95 -65 c-6 -32 -14 -79 -17 -105 l-6 -48 -55 0 c-52 0 -54 1 -53 28 0 15 4 45 9 67 7 33 8 29 4 -22 l-6 -63 45 0 45 0 6 43 c13 88 30 167 34 162 3 -2 0 -30 -6 -62z m-105 0 c-3 -10 -5 -4 -5 12 0 17 2 24 5 18 2 -7 2 -21 0 -30z m-57 -218 l0 -45 -282 2 -283 3 278 2 277 3 0 30 0 30 -97 2 -98 2 100 6 c55 3 101 7 103 8 1 1 2 -18 2 -43z m133 -180 c4 -60 9 -138 13 -172 l7 -63 -55 0 c-68 0 -66 -7 -74 195 l-7 150 55 0 55 0 6 -110z m4116 -192 l-267 -3 -4 -30 -4 -30 165 -3 166 -3 -174 -2 -173 -2 6 23 c3 12 6 30 6 40 0 16 19 17 273 15 l272 -3 -266 -2z m-4933 -48 c16 -12 76 -14 361 -15 l343 0 4 -22 c3 -13 7 -35 9 -50 l4 -28 -340 0 -340 0 -23 -25 c-18 -19 -33 -25 -67 -25 -50 0 -82 26 -91 75 -6 29 -6 29 7 -4 7 -18 21 -39 32 -47 31 -23 83 -17 111 11 20 20 36 25 77 26 40 1 45 3 24 8 l-29 6 34 25 c26 20 49 26 113 31 68 4 57 6 -65 7 -109 2 -150 6 -164 17 -40 30 -99 16 -124 -30 -6 -11 -12 -14 -12 -7 0 7 11 24 25 37 28 29 80 33 111 10z m-73 -40 c-40 -17 -45 -55 -11 -79 19 -13 25 -14 43 -2 25 16 31 51 13 74 -12 15 -11 16 5 3 25 -20 22 -67 -7 -86 -59 -39 -122 49 -64 89 12 9 29 16 38 16 8 -1 0 -7 -17 -15z m35 -43 c3 -16 -2 -22 -17 -22 -24 0 -35 15 -27 36 9 23 40 13 44 -14z m4652 23 c0 -2 -5 -27 -11 -55 l-11 -50 -59 0 c-42 0 -57 3 -54 13 2 6 9 31 15 55 l11 42 54 0 c30 0 55 -2 55 -5z m-3711 -195 c21 -63 56 -154 79 -202 l41 -88 -68 0 -68 0 -41 103 c-40 101 -92 266 -92 294 0 11 13 13 56 11 l57 -3 36 -115z m3970 63 l-256 -3 -11 -38 -11 -37 6 35 c3 19 7 38 10 43 2 4 120 6 261 5 l257 -3 -256 -2z m1409 -51 c3 -16 -2 -22 -17 -22 -24 0 -35 15 -27 36 9 23 40 13 44 -14z m-1400 -39 c-53 -2 -143 -2 -200 0 -57 1 -13 3 97 3 110 0 156 -2 103 -3z m-336 -45 c-5 -18 -7 -19 -10 -6 -2 13 -16 18 -55 21 l-52 3 62 2 c59 2 61 1 55 -20z m-133 -57 c-12 -29 -23 -50 -25 -48 -2 2 6 27 18 55 12 28 23 50 26 48 2 -2 -7 -27 -19 -55z m110 -10 c-6 -18 -13 -30 -15 -28 -2 2 1 18 7 36 6 18 13 30 15 28 2 -2 -1 -18 -7 -36z m-19 -51 c0 -6 -28 -9 -67 -8 l-68 1 65 7 c36 4 66 7 68 8 1 1 2 -2 2 -8z m13 -55 c-3 -9 -8 -14 -10 -11 -3 3 -2 9 2 15 9 16 15 13 8 -4z m825 -49 c-4 -25 -36 -34 -44 -12 -8 21 13 46 32 39 8 -3 14 -15 12 -27z m-4445 -61 l26 -45 -1142 2 c-705 2 -991 5 -747 8 217 3 382 7 365 8 l-30 3 28 24 c22 19 41 26 85 27 31 2 -136 5 -373 8 -291 4 -75 6 667 8 l1096 2 25 -45z m3387 -35 c-6 -11 -13 -20 -16 -20 -2 0 0 9 6 20 6 11 13 20 16 20 2 0 0 -9 -6 -20z m-3124 -127 c38 -53 100 -129 137 -170 l69 -73 -84 0 -83 0 -66 83 c-68 84 -169 233 -169 248 0 5 29 9 64 9 l64 0 68 -97z m74 -308 l44 -45 -1296 0 -1295 0 -377 -361 -377 -362 -227 2 c-124 1 -229 4 -231 7 -2 2 83 5 190 5 107 1 178 4 159 8 l-35 6 25 18 c13 9 38 17 55 17 25 0 44 14 105 77 l75 78 -74 -70 c-40 -39 -72 -65 -70 -60 2 6 169 169 370 362 l366 352 74 4 c41 1 614 4 1274 5 l1201 2 44 -45z m280 -95 c0 -30 0 -30 -60 -30 -52 0 -64 4 -92 30 l-33 29 93 1 92 0 0 -30z m442 -235 l100 -43 2 -61 c1 -56 0 -60 -19 -54 -57 18 -232 94 -312 137 -84 43 -93 51 -93 77 0 28 1 28 68 31 56 2 74 -1 111 -21 24 -13 88 -43 143 -66z m-381 44 l29 -20 -2 -607 c-2 -375 -5 -530 -8 -407 -3 110 -7 181 -8 158 -1 -28 -8 -45 -19 -52 -16 -8 -18 -30 -21 -188 -5 -361 -9 -211 -11 455 0 375 2 682 5 682 3 0 19 -9 35 -21z m703 -150 c44 -10 93 -19 109 -19 26 0 27 -1 27 -60 l0 -61 -37 7 c-21 4 -74 14 -118 23 l-80 16 -3 63 c-2 47 0 62 9 57 6 -4 48 -16 93 -26z m913 -36 c-2 -16 -4 -5 -4 22 0 28 2 40 4 28 2 -13 2 -35 0 -50z m-60 41 c-3 -3 -12 -4 -19 -1 -8 3 -5 6 6 6 11 1 17 -2 13 -5z m-45 -46 c-5 -71 -10 -77 -11 -15 0 31 2 57 7 57 4 0 6 -19 4 -42z m-165 6 c-3 -3 -12 -4 -19 -1 -8 3 -5 6 6 6 11 1 17 -2 13 -5z m-149 -61 l-2 -58 -3 53 -4 52 -109 0 -109 0 -3 -42 -3 -43 -5 48 -5 47 122 0 123 0 -2 -57z m-649 -4 l31 -11 -2 -361 -2 -362 -6 260 c-3 143 -7 250 -8 239 -1 -12 -9 -24 -17 -28 -11 -4 -16 3 -17 32 -1 20 -5 -78 -8 -218 l-6 -255 -2 358 c-1 196 0 357 2 357 1 0 17 -5 35 -11z m819 -36 c-10 -2 -26 -2 -35 0 -10 3 -2 5 17 5 19 0 27 -2 18 -5z m-300 -10 c-21 -2 -57 -2 -80 0 -24 2 -7 4 37 4 44 0 63 -2 43 -4z m-140 -217 l-3 -191 -2 188 -3 187 -25 0 -25 0 -3 -262 -2 -263 -3 270 -2 271 35 -4 35 -4 -2 -192z m272 -299 l0 -493 -63 -62 -64 -63 -61 69 -62 70 0 486 0 486 125 0 125 0 0 -493z m27 351 c-2 -29 -3 -8 -3 47 0 55 1 79 3 53 2 -26 2 -71 0 -100z m56 135 c-7 -2 -19 -2 -25 0 -7 3 -2 5 12 5 14 0 19 -2 13 -5z m4 -50 c-3 -10 -5 -4 -5 12 0 17 2 24 5 18 2 -7 2 -21 0 -30z m-5125 -30 c-95 -2 -248 -2 -340 0 -92 1 -14 3 173 3 187 0 262 -2 167 -3z" style="fill: rgb(155, 155, 155, 0.1);"/>
    <path d="M7560 6765 c13 -14 26 -25 28 -25 3 0 -5 11 -18 25 -13 14 -26 25 -28 25 -3 0 5 -11 18 -25z"/>
    <path d="M7008 6323 c7 -3 16 -2 19 1 4 3 -2 6 -13 5 -11 0 -14 -3 -6 -6z"/>
    <path d="M6241 6204 c-285 -39 -589 -160 -809 -323 -129 -95 -324 -296 -408 -421 -361 -533 -411 -1194 -134 -1765 238 -492 688 -838 1245 -957 98 -20 136 -23 350 -23 214 0 252 3 350 24 358 76 664 239 906 482 282 283 453 647 498 1061 84 767 -360 1507 -1081 1799 -105 43 -274 93 -383 114 -148 28 -368 31 -534 9z m-1424 -1296 c-3 -8 -6 -5 -6 6 -1 11 2 17 5 13 3 -3 4 -12 1 -19z m-10 -40 c-3 -8 -6 -5 -6 6 -1 11 2 17 5 13 3 -3 4 -12 1 -19z m-10 -40 c-3 -8 -6 -5 -6 6 -1 11 2 17 5 13 3 -3 4 -12 1 -19z m-10 -50 c-3 -8 -6 -5 -6 6 -1 11 2 17 5 13 3 -3 4 -12 1 -19z m-10 -60 c-3 -7 -5 -2 -5 12 0 14 2 19 5 13 2 -7 2 -19 0 -25z m-10 -80 c-2 -13 -4 -5 -4 17 -1 22 1 32 4 23 2 -10 2 -28 0 -40z m-10 -245 c-2 -38 -3 -7 -3 67 0 74 1 105 3 68 2 -38 2 -98 0 -135z m10 -145 c-2 -13 -4 -3 -4 22 0 25 2 35 4 23 2 -13 2 -33 0 -45z m10 -65 c-3 -10 -5 -4 -5 12 0 17 2 24 5 18 2 -7 2 -21 0 -30z m10 -55 c-3 -7 -5 -2 -5 12 0 14 2 19 5 13 2 -7 2 -19 0 -25z m21 -83 c0 -16 -2 -15 -8 5 -4 14 -8 34 -8 45 0 16 2 15 8 -5 4 -14 8 -34 8 -45z m137 -355 c162 -322 418 -578 750 -752 61 -32 107 -58 102 -58 -20 0 -195 96 -288 159 -311 209 -541 507 -663 859 -20 57 -36 109 -35 115 0 7 19 -42 43 -108 23 -66 64 -163 91 -215z m895 -820 c8 -5 11 -10 5 -10 -5 0 -17 5 -25 10 -8 5 -10 10 -5 10 6 0 17 -5 25 -10z m80 -32 c10 -6 7 -7 -10 -2 -14 3 -32 11 -40 16 -10 6 -7 7 10 2 14 -3 32 -11 40 -16z m65 -18 c13 -5 14 -9 5 -9 -8 0 -24 4 -35 9 -13 5 -14 9 -5 9 8 0 24 -4 35 -9z m82 -26 c-3 -3 -12 -4 -19 -1 -8 3 -5 6 6 6 11 1 17 -2 13 -5z m50 -10 c-3 -3 -12 -4 -19 -1 -8 3 -5 6 6 6 11 1 17 -2 13 -5z m40 -10 c-3 -3 -12 -4 -19 -1 -8 3 -5 6 6 6 11 1 17 -2 13 -5z m60 -10 c-3 -3 -12 -4 -19 -1 -8 3 -5 6 6 6 11 1 17 -2 13 -5z m70 -10 c-3 -3 -12 -4 -19 -1 -8 3 -5 6 6 6 11 1 17 -2 13 -5z" style="fill: rgb(155, 155, 155, 0.1);"/>
    <path d="M4543 4430 c0 -25 2 -35 4 -22 2 12 2 32 0 45 -2 12 -4 2 -4 -23z"/>
    <path d="M8337 4063 c-2 -5 -7 -25 -11 -45 l-7 -38 45 0 c47 0 46 -1 60 63 6 26 5 27 -38 27 -25 0 -47 -3 -49 -7z" style="fill: rgb(155, 155, 155, 0.1);"/>
    <path d="M2181 2799 c-160 -154 -291 -283 -291 -286 0 -3 24 16 54 43 59 54 270 214 283 214 4 0 -24 -32 -62 -72 -39 -39 22 16 133 123 l204 194 116 5 c114 6 115 6 32 8 l-85 2 25 20 c14 10 43 21 65 23 22 2 -10 4 -72 5 l-112 2 -290 -281z m89 8 c0 -2 -10 -12 -22 -23 l-23 -19 19 23 c18 21 26 27 26 19z" style="fill: rgb(155, 155, 155,0.1);"/>
    <path d="M1964 2508 l-29 -33 33 29 c30 28 37 36 29 36 -2 0 -16 -15 -33 -32z"/>
    <path d="M6128 2513 c7 -3 16 -2 19 1 4 3 -2 6 -13 5 -11 0 -14 -3 -6 -6z"/>
    <path d="M6200 2510 l-25 -8 28 -1 c15 -1 27 4 27 9 0 6 -1 10 -2 9 -2 -1 -14 -5 -28 -9z"/>
    <path d="M7600 7842 l0 -689 -25 -23 c-73 -69 -17 -190 89 -190 82 0 132 100 87 175 -21 36 -21 41 -21 726 l0 689 -65 0 -65 0 0 -688z m107 -684 c-2 -18 -4 -6 -4 27 0 33 2 48 4 33 2 -15 2 -42 0 -60z m-114 -52 c-10 -13 -20 -22 -22 -20 -4 4 29 44 36 44 2 0 -4 -11 -14 -24z m145 -11 c20 -43 14 -74 -18 -107 -27 -27 -36 -30 -73 -25 -41 6 -78 35 -76 61 0 6 5 1 11 -11 20 -42 96 -54 135 -21 22 18 27 76 9 103 -9 14 -13 25 -8 25 5 0 14 -11 20 -25z m-46 -12 c34 -31 11 -93 -35 -93 -27 0 -57 28 -57 53 0 48 56 73 92 40z" style="fill: rgb(155, 155, 155, 0.1);"/>
    <path d="M7622 7078 c-7 -7 -12 -21 -12 -33 0 -12 5 -26 12 -33 7 -7 21 -12 33 -12 12 0 26 5 33 12 7 7 12 21 12 33 0 12 -5 26 -12 33 -7 7 -21 12 -33 12 -12 0 -26 -5 -33 -12z m56 -31 c4 -20 -25 -34 -40 -19 -15 15 -1 44 19 40 10 -2 19 -11 21 -21z" style="fill: rgb(155, 155, 155, 0.1);"/>
    <path d="M5837 8233 c-7 -12 11 -53 23 -53 15 0 8 52 -7 57 -6 2 -13 0 -16 -4z" style="fill: rgb(155, 155, 155, 0.1);"/>
    <path d="M6377 8233 c-4 -3 -7 -17 -7 -30 0 -33 24 -24 28 10 3 26 -7 35 -21 20z" style="fill: rgb(155, 155, 155, 0.1);"/>
    <path d="M7246 8079 c-11 -31 -10 -52 1 -56 16 -6 29 45 15 59 -8 8 -13 7 -16 -3z" style="fill: rgb(155, 155, 155, 0.1);"/>
    <path d="M6706 7681 c-8 -13 11 -61 24 -61 5 0 10 11 10 24 0 26 -24 53 -34 37z" style="fill: rgb(155, 155, 155, 0.1);"/>
    <path d="M2080 4549 c-13 -6 -31 -16 -40 -23 -12 -11 -201 -14 -1027 -17 l-1013 -4 0 -67 0 -68 1011 0 c996 0 1011 0 1036 -20 39 -31 105 -27 144 8 64 57 45 154 -37 188 -38 16 -40 16 -74 3z m68 -102 c4 -20 -25 -34 -40 -19 -15 15 -1 44 19 40 10 -2 19 -11 21 -21z" style="fill: rgb(155, 155, 155, 0.1);"/>
    <path d="M10863 3263 c-28 -5 -72 -49 -79 -80 -19 -73 35 -143 109 -143 23 0 51 7 61 15 17 13 146 15 933 15 l913 0 0 65 0 65 -898 0 -899 0 -19 21 c-18 21 -75 50 -91 48 -4 -1 -18 -4 -30 -6z m62 -118 c0 -30 -39 -27 -43 3 -3 20 0 23 20 20 15 -2 23 -10 23 -23z" style="fill: rgb(155, 155, 155, 0.1);"/>
    <path d="M2953 55 c0 -33 2 -45 4 -27 2 18 2 45 0 60 -2 15 -4 0 -4 -33z"/>
  </g>
</svg>