<?xml version="1.0" standalone="no"?>
<!DOCTYPE svg PUBLIC "-//W3C//DTD SVG 20010904//EN"
 "http://www.w3.org/TR/2001/REC-SVG-20010904/DTD/svg10.dtd">
<svg version="1.0" xmlns="http://www.w3.org/2000/svg"
 width="2638.000000pt" height="2387.000000pt" viewBox="0 0 2638.000000 2387.000000"
 preserveAspectRatio="xMidYMid meet">

<g transform="translate(0.000000,2387.000000) scale(0.100000,-0.100000)"
fill="#264a66" stroke="none">
<path d="M14386 23495 c-52 -18 -87 -45 -110 -84 -83 -142 22 -319 183 -309
l45 2 210 -364 210 -365 7 -1140 c3 -627 7 -1140 8 -1141 0 -1 76 -4 169 -8
92 -4 193 -9 225 -13 l57 -6 -2 -315 -3 -316 -667 -314 -668 -315 0 -473 0
-474 275 0 275 0 0 -455 c0 -271 -4 -455 -9 -455 -20 0 -75 -56 -92 -95 -35
-76 -16 -179 42 -232 52 -48 150 -67 216 -42 35 13 90 64 110 104 21 39 21
131 0 171 -23 45 -91 102 -130 109 l-34 7 -6 210 c-4 116 -7 339 -7 494 l0
283 -272 -2 -273 -2 -3 396 -2 396 86 42 c48 23 91 40 95 39 4 -2 201 -174
438 -382 l431 -380 0 -385 c0 -212 3 -518 7 -678 l6 -293 44 0 43 0 0 303 c0
166 -3 481 -7 700 l-6 399 -434 381 -433 382 37 18 c21 10 261 123 533 251
l495 232 3 391 2 390 -92 6 c-51 4 -152 10 -224 13 l-131 7 -6 441 c-4 242 -7
739 -7 1104 l0 663 -216 376 c-189 330 -214 379 -204 397 6 12 20 37 31 56 54
98 -15 248 -128 279 -49 14 -69 13 -117 -4z"/>
<path d="M13279 23481 c-68 -37 -119 -116 -119 -185 0 -59 63 -163 108 -177
10 -3 14 -75 19 -324 l6 -320 130 -135 c72 -74 260 -268 419 -432 l288 -296 0
-629 0 -629 -392 -173 c-216 -96 -397 -177 -401 -181 -12 -10 19 -80 35 -79 7
0 202 85 433 187 l420 187 0 163 c0 89 -1 394 -3 677 l-2 514 -420 433 -420
433 0 293 0 292 23 0 c70 1 153 91 164 177 8 69 -29 148 -88 189 -54 37 -146
44 -200 15z"/>
<path d="M10716 23475 c-98 -35 -154 -142 -126 -243 12 -46 69 -117 101 -127
18 -6 19 -22 19 -516 l0 -509 -235 0 c-129 0 -235 1 -235 3 -1 17 -188 959
-191 962 -5 4 -78 -10 -84 -17 -3 -3 191 -1013 200 -1035 3 -10 62 -13 248
-13 134 0 278 3 320 6 l75 7 -5 543 -6 542 44 12 c59 16 123 81 139 140 21 79
-2 153 -64 208 -57 50 -128 63 -200 37z"/>
<path d="M11805 23473 c-101 -53 -142 -168 -96 -268 17 -39 65 -88 93 -97 10
-4 14 -117 16 -555 l4 -550 271 -82 c150 -45 278 -84 285 -86 9 -3 12 -83 12
-355 l0 -350 45 0 45 0 0 385 0 384 -97 30 c-211 64 -465 141 -469 141 -2 0
-4 229 -4 509 l0 509 28 5 c143 31 203 220 104 329 -20 23 -51 47 -69 55 -43
18 -131 16 -168 -4z"/>
<path d="M15151 23444 c-71 -36 -104 -86 -109 -168 -3 -50 1 -69 20 -106 34
-63 103 -104 177 -107 l55 -1 399 -714 400 -713 5 -452 4 -453 -311 0 -311 0
0 178 c0 97 -3 294 -7 437 l-6 260 46 12 c155 42 197 248 72 351 -119 97 -298
29 -330 -125 -11 -54 19 -135 65 -177 22 -20 45 -36 50 -36 6 0 10 -139 10
-393 0 -217 3 -441 6 -499 l7 -104 352 4 352 5 6 -544 c4 -299 10 -1055 13
-1679 l6 -1135 -83 81 c-46 45 -131 130 -189 188 l-105 107 -4 640 -3 639
-150 0 -151 0 -38 34 c-59 54 -137 69 -207 40 -108 -45 -160 -167 -113 -269
31 -70 113 -125 185 -125 45 0 104 27 143 66 34 35 44 54 54 103 l13 61 88 0
88 0 0 -613 0 -612 286 -285 286 -285 -6 390 c-3 215 -11 1249 -18 2299 l-11
1909 -405 725 -405 724 17 27 c37 57 48 95 44 152 -6 78 -42 133 -111 165 -67
31 -110 30 -176 -2z"/>
<path d="M12482 22763 l3 -538 535 -357 534 -357 1 -75 c0 -66 3 -79 30 -118
41 -58 96 -88 162 -88 28 0 64 5 80 11 35 13 90 64 110 104 21 39 21 131 0
170 -20 40 -75 91 -110 104 -47 18 -119 13 -167 -12 l-45 -22 -516 343 -516
343 -6 202 c-4 111 -7 343 -7 515 l0 312 -45 0 -45 0 2 -537z"/>
<path d="M13840 22891 l0 -409 370 -296 370 -296 0 -473 c0 -261 3 -696 6
-968 l6 -494 -448 -261 -449 -261 -2 -873 -2 -872 -42 -36 c-72 -62 -97 -150
-63 -230 39 -94 138 -145 236 -121 71 16 131 76 147 147 25 103 -37 213 -137
243 l-39 11 -6 376 c-4 206 -7 583 -7 837 l0 461 448 261 447 261 3 168 c2 93
0 552 -3 1021 l-7 851 -363 290 -362 289 -6 219 c-4 121 -7 297 -7 392 l0 172
-45 0 -45 0 0 -409z"/>
<path d="M11172 22475 l5 -815 -91 0 -92 0 -21 44 c-41 84 -142 131 -231 107
-53 -15 -110 -64 -133 -116 -73 -160 97 -337 259 -269 49 20 99 69 113 111
l11 33 289 0 289 0 0 -280 0 -280 295 0 295 0 0 45 0 45 -243 0 -244 0 -6 152
c-4 83 -7 209 -7 280 l0 128 -195 0 -195 0 0 223 c0 122 -3 489 -7 815 l-6
592 -45 0 -45 0 5 -815z"/>
<path d="M16535 23247 c-55 -31 -94 -90 -102 -154 -5 -44 -2 -61 22 -108 17
-36 40 -65 64 -81 l38 -24 6 -1067 c4 -586 7 -1323 7 -1636 l0 -570 -41 -35
c-101 -87 -104 -223 -7 -308 146 -128 373 10 327 199 -15 65 -66 122 -129 144
l-47 17 -6 299 c-4 165 -7 376 -7 469 l0 168 38 0 c20 0 552 14 1182 29 630
16 1145 29 1145 28 0 -1 35 -73 78 -160 l77 -158 -22 -29 c-32 -44 -37 -143
-10 -196 37 -73 104 -114 184 -114 187 1 267 232 124 358 -40 35 -84 46 -154
40 l-47 -4 -87 178 -88 178 -67 0 c-38 0 -581 -14 -1208 -29 -627 -16 -1141
-28 -1141 -28 -1 1 -5 499 -8 1107 l-7 1105 44 12 c55 15 121 84 137 144 22
82 -14 173 -87 220 -61 38 -147 41 -208 6z"/>
<path d="M9562 23035 c-25 -11 -32 -19 -28 -32 3 -10 104 -287 223 -615 l218
-597 925 -842 925 -841 5 -543 c3 -299 7 -545 10 -547 3 -2 220 -2 483 0 l477
3 0 45 0 44 -434 0 -434 0 -7 519 -7 518 -933 849 -932 848 -219 603 c-121
332 -223 603 -229 603 -5 -1 -25 -7 -43 -15z"/>
<path d="M17187 22648 l-177 -242 6 -646 c4 -355 7 -646 8 -647 1 -1 550 23
1221 53 l1219 54 22 -22 c77 -81 604 -669 604 -674 0 -4 -18 -26 -39 -49 -44
-48 -56 -89 -49 -166 13 -127 162 -206 283 -150 152 70 154 285 3 362 -21 10
-48 19 -61 19 -18 0 -101 86 -371 385 l-348 385 -58 0 c-31 0 -556 -22 -1166
-50 -610 -27 -1124 -50 -1141 -50 l-33 0 0 588 0 588 166 227 c92 125 165 229
163 231 -2 1 -17 12 -33 24 -16 12 -32 22 -35 22 -4 0 -87 -109 -184 -242z"/>
<path d="M8427 22835 c-80 -28 -127 -99 -127 -193 0 -178 210 -265 336 -138
22 22 43 47 45 55 4 10 77 -6 319 -71 l315 -85 235 -497 235 -497 310 -307
c171 -169 563 -558 873 -865 l562 -557 0 -539 0 -538 -162 4 c-90 2 -177 6
-194 9 l-31 4 -7 346 c-3 190 -4 349 -1 353 2 5 21 12 40 15 48 9 110 67 131
121 80 209 -195 373 -340 203 -79 -92 -61 -233 37 -297 l37 -24 0 -360 0 -359
-180 7 -180 8 0 -46 0 -45 103 -6 c154 -9 837 -29 840 -25 1 2 0 276 -3 609
l-5 605 -876 868 -877 868 -237 502 c-130 276 -242 507 -248 513 -7 6 -161 50
-343 99 l-331 87 -11 44 c-22 80 -111 145 -198 144 -16 -1 -46 -7 -67 -15z"/>
<path d="M17966 22685 c-88 -31 -144 -123 -133 -218 l6 -52 -237 -69 c-130
-38 -241 -72 -245 -76 -7 -6 271 -691 287 -707 3 -3 470 42 1038 100 960 99
1034 105 1043 89 40 -68 124 -122 191 -122 119 0 225 135 195 248 -42 155
-215 211 -331 106 -21 -19 -46 -55 -56 -80 -9 -24 -18 -44 -20 -44 -2 0 -446
-45 -986 -100 -540 -56 -991 -100 -1001 -98 -16 2 -44 60 -133 273 -76 183
-108 272 -101 276 7 4 104 34 216 67 l203 60 31 -19 c149 -90 339 54 296 226
-22 87 -111 156 -199 155 -14 -1 -42 -7 -64 -15z"/>
<path d="M7728 22063 l-588 -3 0 -45 0 -46 860 1 860 1 655 -868 654 -868 1
-828 0 -828 48 3 47 3 0 213 c0 116 -1 495 -3 841 l-2 628 -666 884 c-366 486
-673 892 -681 902 -15 16 -41 17 -307 15 -160 -2 -555 -4 -878 -5z"/>
<path d="M6340 21593 l0 -48 689 3 689 3 6 -473 c4 -260 6 -658 4 -884 l-3
-411 -261 201 -261 201 -7 95 c-3 52 -6 229 -6 393 l0 297 -45 0 -45 0 0 -408
0 -409 23 -20 c36 -33 688 -533 696 -533 8 0 4 1846 -5 1958 l-6 82 -734 0
-734 0 0 -47z"/>
<path d="M12740 20785 c0 -404 2 -735 4 -735 2 0 192 110 422 244 l419 244 35
-34 c44 -41 77 -54 141 -54 121 0 208 99 197 222 -10 99 -98 178 -200 178 -65
0 -105 -19 -150 -68 -37 -41 -41 -49 -56 -124 -7 -37 -11 -40 -361 -243 -194
-113 -355 -204 -357 -202 -2 2 -3 263 -2 579 l3 576 305 -170 c168 -93 308
-170 313 -171 9 -2 53 71 46 76 -9 8 -748 417 -753 417 -3 0 -6 -331 -6 -735z"/>
<path d="M8213 20798 c4 -376 7 -819 7 -985 l0 -303 46 0 47 0 -5 930 c-4 835
-2 930 11 930 9 0 183 -18 387 -42 l371 -42 7 -564 c4 -310 5 -567 2 -570 -4
-3 -291 -54 -353 -62 -1 0 -4 119 -5 264 l-3 263 46 16 c25 9 58 26 72 37 58
46 84 159 54 233 -19 45 -88 104 -138 117 -82 22 -173 -14 -220 -87 -56 -89
-33 -213 51 -271 l39 -27 2 -240 c0 -132 4 -278 8 -325 l6 -86 233 37 c129 20
250 40 269 44 l36 6 -5 645 c-3 354 -7 646 -9 649 -3 2 -205 27 -449 54 -245
28 -460 54 -479 57 l-34 6 6 -684z"/>
<path d="M21020 21455 c-46 -21 -78 -51 -101 -97 l-19 -38 -420 0 c-231 0
-420 -3 -420 -7 0 -5 200 -199 444 -432 l444 -424 655 2 655 2 12 -37 c18 -52
77 -108 133 -123 132 -37 257 55 257 190 0 135 -123 233 -250 199 -48 -13
-127 -81 -136 -116 l-6 -24 -643 0 -643 0 -351 336 c-193 185 -351 338 -351
340 0 2 139 4 309 4 l309 0 11 -33 c13 -39 62 -92 105 -114 40 -21 132 -21
171 0 40 20 91 75 104 110 32 83 -3 190 -76 241 -52 36 -138 45 -193 21z"/>
<path d="M5805 21286 c-39 -17 -103 -88 -110 -123 -4 -16 -8 -36 -10 -46 -2
-10 2 -41 9 -68 31 -120 167 -183 281 -130 48 22 79 54 100 104 l15 37 364 0
363 0 7 -822 6 -823 455 -450 454 -450 7 -1282 7 -1283 -22 0 c-50 0 -121 -52
-152 -112 -37 -73 -18 -179 43 -234 119 -109 321 -40 336 115 8 85 -4 119 -62
176 l-53 51 -6 1304 -6 1305 -456 450 -456 450 1 435 c0 239 -3 621 -7 848
l-6 412 -413 0 -412 0 -6 24 c-9 36 -53 84 -97 106 -44 23 -129 26 -174 6z"/>
<path d="M11881 20830 c-73 -31 -131 -115 -131 -191 0 -54 45 -136 93 -167 34
-23 51 -27 112 -27 97 0 146 31 184 116 l26 59 112 0 113 0 0 -152 c0 -84 3
-339 7 -565 l6 -413 404 0 403 0 0 45 0 45 -360 0 -360 0 0 428 c0 236 -3 490
-7 565 l-6 137 -167 0 -166 0 -17 35 c-25 53 -87 89 -161 92 -33 2 -72 -2 -85
-7z"/>
<path d="M5015 20651 c-89 -23 -143 -80 -160 -172 -15 -79 39 -174 120 -210
50 -23 97 -24 156 -3 l46 17 213 -137 c117 -75 219 -136 225 -136 7 0 171 41
364 90 193 50 353 90 355 90 3 0 6 -364 8 -809 2 -445 6 -813 10 -817 4 -4
174 -44 378 -89 203 -45 372 -83 374 -86 2 -2 8 -253 12 -556 l7 -553 -47 -41
c-60 -53 -79 -91 -80 -160 -3 -217 305 -278 389 -77 46 111 -27 252 -141 274
l-34 6 0 533 c0 292 -3 559 -6 592 l-6 60 -378 83 -377 83 -6 420 c-4 231 -7
609 -7 839 0 395 -1 419 -17 414 -62 -18 -770 -196 -780 -196 -8 0 -99 55
-204 122 -166 106 -190 124 -184 142 24 82 12 156 -35 210 -49 55 -130 83
-195 67z"/>
<path d="M9555 20278 c-154 -54 -187 -263 -56 -356 l38 -27 6 -524 c4 -288 7
-619 7 -735 l0 -211 438 -727 c241 -401 441 -731 445 -734 9 -10 79 37 74 50
-3 6 -199 333 -436 726 l-431 715 0 561 c0 308 -3 628 -6 710 l-7 150 42 13
c52 15 117 72 137 119 64 153 -95 324 -251 270z"/>
<path d="M20633 20043 l-883 -3 0 -49 0 -48 773 4 c424 2 1084 6 1465 9 l692
6 0 44 0 44 -582 -2 c-321 -2 -980 -4 -1465 -5z"/>
<path d="M17353 20023 l-323 -3 0 -778 0 -777 131 -142 130 -142 -16 -30 c-32
-63 -9 -177 46 -228 75 -69 203 -69 277 0 58 53 79 157 49 230 -19 45 -89 105
-132 113 -38 7 -118 1 -146 -10 -12 -5 -45 25 -126 113 l-110 119 -6 78 c-4
42 -7 367 -7 721 l0 643 195 0 195 0 1 -157 c1 -87 5 -389 8 -671 l6 -512 343
-162 c188 -88 342 -164 342 -168 0 -4 -263 -265 -585 -581 l-585 -573 0 -402
c0 -220 3 -476 7 -567 l6 -167 45 0 45 0 -7 548 -6 548 620 608 c341 334 620
611 620 615 0 3 -170 86 -378 183 l-377 177 -3 639 -2 639 407 6 c223 4 529 7
678 7 l273 0 6 -31 c3 -17 6 -144 6 -282 l0 -250 403 6 c221 4 782 8 1247 8
l845 1 277 -363 c166 -218 284 -365 295 -367 11 -2 418 24 907 58 488 33 894
60 902 60 10 0 14 13 14 45 l0 45 -47 0 c-27 -1 -428 -27 -893 -59 -465 -32
-848 -57 -851 -55 -4 2 -131 168 -284 368 l-277 364 -1224 -5 -1224 -6 0 276
0 277 -697 -2 c-384 -2 -843 -4 -1020 -5z"/>
<path d="M4975 19853 c-74 -39 -115 -104 -115 -183 0 -63 26 -117 79 -161 l40
-34 7 -384 7 -385 419 -517 418 -518 0 -473 0 -474 243 -137 244 -137 6 -443
c4 -243 7 -762 7 -1154 l0 -711 -32 -11 c-18 -5 -105 -31 -193 -56 -88 -25
-181 -53 -207 -61 l-48 -16 0 -218 0 -218 -34 -20 c-108 -64 -117 -240 -17
-325 157 -131 390 36 317 228 -20 50 -82 112 -123 121 -16 3 -34 7 -40 10 -10
2 -13 47 -13 178 l0 174 48 16 c26 8 128 38 227 67 99 28 187 55 195 60 13 7
15 134 12 1071 -1 585 -5 1131 -8 1213 l-6 150 -238 134 -237 133 -7 61 c-3
33 -6 243 -6 467 l0 407 -420 519 -420 519 0 361 0 362 33 6 c18 3 49 20 70
37 150 124 68 360 -125 359 -29 -1 -66 -8 -83 -17z"/>
<path d="M4221 18878 c1 -436 4 -851 8 -923 l6 -130 383 -583 382 -583 0 -485
0 -484 329 0 329 0 7 -92 c3 -51 5 -293 3 -538 l-3 -445 -327 -174 -328 -174
0 -357 0 -356 -35 -34 c-41 -39 -59 -87 -57 -152 1 -58 19 -94 71 -141 44 -40
87 -52 162 -45 91 9 169 100 169 199 0 92 -78 184 -167 196 l-41 5 -7 310 c-4
174 -4 313 1 318 5 5 154 86 332 180 l322 172 -2 612 -3 611 -326 -4 -326 -4
-6 24 c-4 13 -7 219 -7 457 l0 433 -385 587 -384 588 -7 902 -7 902 -44 0 -43
0 1 -792z"/>
<path d="M8638 19206 l-3 -364 -309 211 c-287 197 -310 215 -320 250 -35 121
-176 182 -287 124 -119 -63 -144 -216 -52 -318 41 -45 116 -73 173 -63 50 9
116 49 137 84 10 17 23 28 29 26 7 -3 170 -113 363 -245 194 -133 355 -241
359 -241 4 0 6 176 4 391 -2 315 0 391 10 387 7 -3 88 -27 179 -54 l166 -49 7
-568 8 -568 384 -622 384 -621 0 -66 c0 -80 26 -131 88 -175 39 -26 52 -30
112 -30 60 0 74 4 112 30 54 38 88 102 88 167 0 65 -18 105 -68 150 -69 63
-152 72 -234 25 -21 -11 -39 -19 -41 -16 -2 2 -169 271 -370 598 l-367 593 -1
452 c-1 248 -4 512 -8 586 l-6 134 -255 78 c-140 43 -261 78 -267 78 -10 0
-13 -83 -15 -364z"/>
<path d="M5815 19546 c-72 -32 -118 -105 -118 -186 0 -68 18 -106 78 -158 l45
-40 0 -301 c0 -211 4 -309 12 -324 6 -12 299 -483 650 -1045 l638 -1024 8
-731 7 -731 492 3 492 3 16 -34 c41 -81 102 -121 186 -122 184 -3 272 237 130
357 -98 82 -250 50 -309 -66 l-25 -47 -448 0 -448 0 -3 698 -3 697 -647 1036
-648 1035 -6 295 -7 294 45 12 c177 48 200 290 36 374 -44 22 -128 25 -173 5z"/>
<path d="M22418 19490 l-406 -5 127 -230 127 -230 229 -3 230 -3 26 -38 c50
-71 167 -103 242 -65 148 75 164 262 29 355 -49 33 -144 39 -199 10 -53 -26
-91 -73 -105 -127 l-12 -44 -191 0 -190 0 -77 139 c-43 77 -78 142 -78 145 0
3 248 6 550 6 l550 0 0 50 0 50 -222 -2 c-123 -2 -406 -5 -630 -8z"/>
<path d="M18040 19289 c-33 -13 -88 -66 -107 -104 -9 -17 -16 -54 -16 -85 0
-31 7 -68 16 -85 20 -40 75 -91 110 -104 44 -17 118 -13 166 9 l43 20 152 -92
151 -92 855 2 c470 1 1080 5 1355 8 l500 7 229 -262 228 -261 137 0 c187 0
1703 18 2042 24 l277 6 28 -58 c67 -134 242 -156 337 -43 101 121 24 314 -132
329 -86 8 -165 -37 -216 -121 -9 -16 -111 -18 -1220 -32 -966 -12 -1212 -12
-1221 -2 -6 6 -109 124 -228 260 l-218 248 -1361 -7 -1362 -7 -135 82 -135 81
0 79 c0 72 -3 83 -30 123 -42 59 -96 88 -165 87 -30 0 -66 -5 -80 -10z"/>
<path d="M3466 19215 c-88 -31 -136 -99 -136 -192 0 -70 28 -125 85 -165 l45
-32 0 -321 0 -320 475 -843 475 -843 0 -748 0 -748 249 -64 249 -63 5 -39 c13
-94 117 -175 212 -164 106 11 177 85 183 190 5 82 -24 139 -93 182 -86 53
-189 37 -262 -43 l-31 -34 -205 52 -204 52 -6 301 c-4 165 -7 492 -7 727 l0
427 -475 843 -475 843 0 301 0 301 59 26 c75 33 112 85 119 163 6 73 -11 117
-62 164 -64 59 -126 73 -200 47z"/>
<path d="M13165 19201 c-105 -49 -152 -166 -106 -266 17 -39 81 -105 101 -105
6 0 10 -249 10 -677 0 -373 3 -796 7 -941 l6 -264 483 4 484 3 2 -320 3 -320
521 3 521 2 6 -857 c4 -471 7 -1120 7 -1442 l0 -586 -290 -310 -290 -310 2
-928 c2 -510 0 -927 -4 -927 -18 0 -83 -69 -99 -105 -46 -100 1 -217 106 -266
146 -68 312 68 276 225 -19 81 -71 132 -162 159 -14 5 -17 51 -22 389 -4 210
-7 615 -7 899 l0 516 294 314 293 314 -4 750 c-2 413 -6 1089 -9 1503 l-6 754
-519 -4 -519 -3 0 120 c0 66 -3 212 -7 324 l-6 204 -482 -6 -482 -7 -6 557
c-4 306 -7 704 -7 884 l0 328 43 13 c62 18 121 82 136 146 39 162 -126 302
-274 233z"/>
<path d="M12128 18764 c-16 -8 -28 -18 -28 -23 0 -4 149 -315 330 -690 l330
-681 0 -625 c0 -415 3 -626 10 -630 6 -4 229 -3 495 1 l485 7 0 44 0 43 -444
0 -443 0 -6 68 c-4 37 -7 303 -7 592 l0 526 -334 689 c-184 380 -340 691 -348
692 -7 1 -25 -4 -40 -13z"/>
<path d="M18845 18467 c-72 -34 -119 -107 -119 -188 -2 -222 313 -276 392 -68
l10 26 534 7 c293 3 700 9 904 13 l371 6 12 -164 c7 -90 15 -193 18 -229 l6
-65 83 -59 c46 -33 83 -61 81 -63 -2 -1 -343 2 -758 8 l-754 12 -365 -113
c-201 -62 -370 -115 -375 -117 -6 -2 -47 38 -90 89 -125 144 -117 130 -98 168
43 88 14 199 -68 255 -47 33 -126 44 -182 26 -68 -23 -137 -122 -137 -197 0
-63 51 -144 110 -174 42 -21 137 -27 169 -11 15 8 37 -12 135 -125 64 -74 122
-134 127 -134 6 0 186 54 401 121 l391 121 646 -11 c355 -6 723 -11 816 -11
l170 0 128 -91 128 -91 -3 -127 -3 -126 -1870 -42 c-1028 -23 -1898 -42 -1932
-42 -61 -1 -61 -1 -80 37 -46 87 -172 128 -260 84 -197 -101 -134 -382 86
-382 88 0 164 54 191 135 l12 35 116 1 c64 0 353 6 642 13 289 7 526 12 527
11 2 -1 -102 -219 -230 -486 l-233 -484 -144 -6 c-80 -4 -247 -7 -372 -8
l-228 -1 0 223 c0 122 -3 239 -6 260 l-7 38 163 -3 162 -3 13 -39 c26 -76 110
-136 190 -136 83 0 172 68 194 147 14 49 14 72 0 114 -55 162 -263 193 -361
54 l-32 -45 -208 0 -208 0 0 -297 c0 -164 3 -322 6 -350 l7 -53 442 0 442 0
258 540 259 540 56 0 c30 0 548 11 1150 25 602 14 1132 25 1178 25 l82 0 0
-204 0 -204 -137 -6 c-76 -4 -475 -18 -888 -32 l-750 -25 -29 -27 c-17 -15
-242 -230 -501 -478 l-471 -451 -425 -8 -426 -7 -6 28 c-9 43 -40 88 -83 120
-34 26 -45 29 -115 29 -86 0 -108 -10 -163 -79 -58 -71 -45 -197 26 -263 93
-87 257 -61 314 50 l15 27 443 0 444 0 505 484 504 484 914 31 c502 17 916 35
920 39 3 4 4 206 1 448 l-5 442 -276 198 c-152 108 -277 198 -278 198 -1 1 -9
93 -17 206 -9 113 -19 225 -22 249 l-6 44 -576 -6 c-318 -4 -743 -10 -947 -13
l-370 -7 -20 44 c-31 65 -89 102 -168 106 -38 2 -74 -2 -92 -10z"/>
<path d="M10186 18425 c-76 -27 -136 -110 -136 -190 0 -102 100 -205 197 -205
85 0 186 71 199 140 4 17 12 34 18 36 7 3 79 3 160 2 l149 -3 -167 -140 c-91
-77 -166 -142 -166 -145 1 -3 13 -19 28 -37 l28 -32 212 180 211 179 279 -2
279 -3 -369 -454 -368 -454 2 -401 3 -401 43 0 43 0 0 385 -1 385 420 515
c231 283 420 517 420 520 0 3 -277 3 -615 2 -524 -3 -615 -2 -615 10 0 29 -69
96 -117 112 -56 19 -86 20 -137 1z"/>
<path d="M4676 18395 c-94 -33 -149 -138 -125 -237 22 -92 125 -167 215 -156
27 3 37 -12 286 -407 l258 -410 0 -352 0 -352 -30 -18 c-82 -48 -114 -168 -70
-259 40 -82 141 -129 229 -105 128 34 188 168 130 288 -25 52 -56 78 -121 100
l-48 18 0 355 0 354 -254 406 c-139 223 -256 411 -261 418 -4 8 1 22 13 35 93
99 51 267 -80 321 -45 19 -90 20 -142 1z"/>
<path d="M2578 18390 c-88 -27 -140 -92 -146 -184 -3 -50 1 -69 20 -106 29
-53 93 -97 157 -108 l44 -7 503 -730 c277 -402 503 -737 504 -745 5 -137 155
-236 278 -184 145 60 176 244 57 341 -82 68 -192 63 -275 -12 l-25 -23 -478
695 -477 695 25 20 c41 32 65 90 65 156 0 81 -39 143 -113 177 -53 25 -92 29
-139 15z"/>
<path d="M12105 18089 c-81 -31 -135 -107 -135 -192 0 -66 19 -106 74 -154
l47 -41 6 -344 6 -344 -252 -336 -252 -336 2 -677 c1 -670 1 -677 -19 -698
-75 -80 -65 -208 21 -284 80 -70 188 -68 267 3 67 61 86 164 45 244 -32 61
-114 110 -186 110 l-26 0 -6 377 c-4 207 -7 493 -7 635 l0 258 250 333 250
334 0 357 c0 331 1 357 18 362 104 31 155 93 160 193 3 80 -20 129 -84 174
-46 32 -129 44 -179 26z"/>
<path d="M22046 18085 c-76 -27 -136 -110 -136 -190 0 -78 56 -158 132 -189
78 -33 154 -14 221 55 l47 49 1038 0 c570 0 1061 -3 1090 -6 l52 -7 0 -393 c0
-250 -4 -394 -10 -394 -5 0 -526 -47 -1157 -105 -631 -58 -1152 -105 -1158
-105 -9 0 -14 81 -19 286 -3 157 -4 289 -2 292 4 6 608 -24 1292 -63 l121 -7
12 -33 c50 -138 236 -175 334 -66 148 164 -29 414 -228 322 -47 -22 -89 -64
-104 -104 l-11 -28 -78 6 c-102 8 -1350 75 -1396 75 l-36 0 0 -390 0 -390 33
0 c17 1 586 51 1262 113 l1230 112 3 480 c1 263 -1 482 -6 487 -4 4 -513 9
-1130 10 l-1123 3 -11 44 c-20 80 -116 152 -199 151 -13 -1 -41 -7 -63 -15z"/>
<path d="M8692 18057 c-19 -13 -31 -28 -29 -37 2 -9 194 -300 425 -648 232
-347 422 -634 422 -637 0 -3 -96 -5 -212 -5 -117 0 -312 -3 -432 -7 l-219 -6
6 -299 c3 -164 8 -302 11 -306 3 -5 136 -91 295 -193 l290 -184 0 -325 0 -325
-38 -26 c-104 -72 -108 -229 -7 -317 67 -59 150 -64 233 -16 145 84 115 316
-46 365 l-38 11 -7 67 c-3 36 -6 190 -6 341 l0 275 -295 189 -295 188 0 233 0
232 461 6 c254 3 464 8 467 11 4 5 -944 1437 -950 1435 -2 0 -18 -10 -36 -22z"/>
<path d="M8231 17439 c1 -321 5 -840 8 -1153 l6 -568 205 -67 205 -67 3 -402
2 -402 52 0 51 0 -7 53 c-3 28 -6 224 -6 434 l0 381 -207 69 -208 70 -7 959
c-3 527 -5 960 -4 962 2 1 60 -87 129 -197 l127 -199 -26 -47 c-64 -113 -6
-261 114 -295 58 -16 94 -12 149 15 202 101 111 398 -117 383 l-42 -3 -207
322 c-113 177 -209 325 -213 329 -5 4 -7 -256 -7 -577z"/>
<path d="M16575 17901 c-48 -22 -79 -54 -100 -103 -38 -93 1 -209 86 -253 l26
-14 5 -1206 c3 -663 7 -1207 9 -1208 2 -1 517 0 1144 3 l1141 5 474 359 c261
198 481 363 487 369 8 6 30 0 65 -17 77 -39 144 -32 216 21 77 58 97 180 42
267 -40 62 -119 102 -187 92 -61 -8 -117 -41 -150 -89 -24 -35 -28 -50 -28
-115 l0 -74 -472 -357 -471 -358 -564 -6 c-309 -4 -797 -7 -1084 -7 l-521 0
-6 728 c-4 400 -7 918 -7 1152 l0 426 43 11 c59 16 116 77 133 142 42 165
-126 304 -281 232z"/>
<path d="M1806 17755 c-91 -32 -136 -95 -136 -190 0 -75 27 -127 88 -169 37
-26 52 -31 106 -31 83 0 149 38 184 108 l25 47 111 0 111 0 265 -530 265 -530
161 0 162 0 6 -24 c25 -99 175 -158 274 -107 77 40 112 97 112 182 0 62 -18
105 -61 146 -43 40 -77 53 -140 53 -80 0 -168 -59 -185 -124 -5 -21 -13 -24
-96 -30 -50 -3 -110 -6 -132 -6 l-42 0 -264 530 -264 530 -144 0 -143 0 -14
33 c-27 66 -120 128 -190 127 -11 -1 -38 -7 -59 -15z"/>
<path d="M11550 17477 c-90 -29 -155 -146 -131 -235 l11 -41 -101 -98 -101
-98 8 -1685 7 -1685 -507 -308 -507 -307 -827 -1 c-455 -1 -1140 -5 -1522 -8
l-695 -6 -3 -44 -3 -44 1542 7 1542 8 539 326 539 327 -5 570 c-3 314 -8 1074
-12 1690 l-5 1120 80 79 80 80 37 -17 c84 -41 166 -31 231 26 95 84 95 220 0
304 -56 49 -124 63 -197 40z"/>
<path d="M1465 17318 c-167 -58 -180 -292 -22 -375 33 -17 107 -22 153 -10
l30 8 216 -441 217 -440 653 0 c359 0 805 3 991 7 l337 6 0 45 0 44 -962 -7
-963 -7 -208 428 -208 428 16 37 c35 76 14 179 -47 236 -51 48 -135 65 -203
41z"/>
<path d="M25167 17220 c-122 -37 -177 -193 -108 -302 17 -26 43 -54 59 -62
l29 -15 6 -392 c4 -216 7 -602 7 -858 l0 -466 281 -275 281 -275 5 -1323 6
-1322 -43 -37 c-102 -88 -105 -224 -8 -309 146 -128 373 10 327 199 -15 64
-65 120 -127 143 -26 10 -49 19 -51 20 -2 2 -7 603 -11 1335 l-7 1332 -282
276 -282 276 -2 828 -2 828 38 10 c49 13 123 80 138 126 18 55 7 135 -25 183
-46 70 -147 105 -229 80z"/>
<path d="M15546 16908 c-72 -19 -146 -118 -146 -194 0 -64 62 -164 111 -179
18 -6 19 -22 19 -534 0 -290 3 -610 7 -709 l6 -182 294 0 293 0 0 -523 c0
-288 3 -720 7 -960 l6 -437 -193 0 -193 0 7 128 c3 70 9 281 12 469 l7 342 29
6 c40 9 97 62 119 110 72 157 -82 329 -245 275 -163 -54 -187 -280 -39 -367
l46 -27 -7 -220 c-3 -122 -9 -353 -12 -513 l-7 -293 281 0 282 0 0 333 c0 184
-3 657 -7 1053 l-6 719 -292 -3 -292 -3 -6 467 c-4 257 -7 551 -7 654 l0 187
40 12 c78 23 149 112 150 186 0 93 -66 182 -153 203 -53 14 -58 14 -111 0z"/>
<path d="M23105 16581 c-71 -18 -123 -60 -149 -122 -14 -33 -20 -37 -63 -42
-26 -3 -524 -43 -1106 -89 l-1059 -82 -791 -650 -791 -650 -65 0 c-120 -2
-200 -70 -209 -180 -6 -73 11 -117 63 -165 75 -69 161 -76 248 -21 85 53 114
178 63 267 l-24 42 491 404 492 404 860 6 861 7 12 -34 c17 -46 81 -102 134
-116 77 -21 151 2 206 64 67 77 67 185 0 262 -55 62 -129 85 -206 64 -52 -13
-117 -70 -133 -114 l-12 -33 -795 -6 c-437 -4 -797 -5 -799 -3 -2 2 94 84 214
183 l218 179 1060 83 c583 45 1074 85 1090 87 27 5 32 1 55 -42 64 -122 229
-139 324 -34 40 45 61 108 51 159 -8 44 -37 101 -61 122 -47 41 -125 63 -179
50z"/>
<path d="M24240 16368 c-25 -13 -58 -42 -75 -65 l-30 -42 -360 0 -360 -1 3
-680 3 -680 -743 -1 c-409 -1 -891 -5 -1071 -8 l-328 -6 -180 -335 -180 -335
6 -1010 c4 -555 8 -1011 10 -1013 2 -3 1719 -72 1792 -72 29 0 33 -4 44 -42
15 -57 80 -122 139 -138 108 -29 222 35 251 142 45 168 -135 313 -291 233 -27
-14 -84 -73 -91 -94 -3 -8 -224 -3 -799 19 -437 16 -831 33 -876 36 l-81 6 -6
951 -7 951 161 303 c89 167 164 305 167 307 4 2 494 7 1090 11 l1082 8 0 678
0 679 310 0 310 0 0 -22 c0 -63 88 -148 170 -162 87 -15 191 50 220 139 55
168 -123 322 -280 243z"/>
<path d="M9543 16178 c3 -7 48 -119 101 -249 53 -130 96 -239 96 -242 0 -3
-11 -22 -24 -42 -82 -120 -6 -287 141 -311 106 -17 211 62 229 173 20 125
-102 249 -226 229 l-36 -6 -72 178 c-40 97 -72 180 -72 185 0 4 115 7 255 7
l255 0 0 -565 0 -565 -170 0 -170 0 0 -45 0 -45 218 2 217 3 0 143 c0 78 -1
372 -3 652 l-2 510 -371 0 c-293 0 -370 -3 -366 -12z"/>
<path d="M12076 16170 c-119 -38 -179 -168 -128 -282 21 -48 73 -95 119 -107
l28 -7 6 -110 c4 -60 7 -465 8 -900 l1 -791 -483 -694 -484 -694 -121 -3
c-121 -3 -122 -2 -131 22 -17 42 -71 94 -116 112 -168 64 -331 -109 -256 -271
73 -158 299 -157 367 3 l14 32 123 0 c67 0 227 3 355 7 l232 6 0 44 0 43 -175
0 c-96 0 -175 2 -175 5 0 3 212 310 472 682 l472 678 -3 915 -3 915 47 33
c101 71 115 220 29 305 -54 54 -135 77 -198 57z"/>
<path d="M1191 16143 l-24 -5 6 -471 c4 -260 7 -647 7 -861 l0 -389 1514 8
1514 7 11 -34 c13 -40 74 -102 114 -117 45 -17 124 -13 165 8 154 79 148 300
-10 366 -100 41 -231 -11 -267 -107 l-11 -28 -667 0 c-368 0 -1029 -3 -1470
-7 l-802 -6 -3 769 c-2 423 -3 770 -3 771 0 1 52 4 115 8 l115 6 197 -316
c198 -316 198 -316 183 -345 -39 -75 -28 -163 28 -227 84 -95 220 -95 304 0
113 129 18 333 -152 328 -27 0 -61 -2 -74 -3 -21 -3 -47 33 -230 325 l-206
327 -165 -1 c-91 -1 -176 -4 -189 -6z"/>
<path d="M10730 16118 c-26 -14 -57 -41 -75 -66 -26 -38 -30 -52 -30 -111 0
-57 4 -74 28 -110 16 -23 44 -52 63 -63 l34 -20 0 -592 0 -593 -547 -6 c-302
-4 -863 -7 -1249 -7 -385 0 -803 -3 -928 -7 l-227 -6 3 -41 3 -41 1185 3 c652
1 1336 5 1520 8 l335 6 -3 633 -4 632 37 7 c41 8 108 64 132 110 21 40 21 132
0 171 -20 40 -75 91 -110 104 -47 18 -119 13 -167 -11z"/>
<path d="M22737 15680 l-338 -350 -672 0 c-370 0 -810 -3 -978 -7 l-306 -6 5
-781 c2 -430 7 -1298 10 -1931 l7 -1150 1035 3 c569 1 1106 5 1193 9 l158 6
-3 41 -3 41 -1141 -4 -1142 -4 -6 114 c-3 63 -9 891 -12 1840 l-6 1726 593 6
c327 4 755 7 951 7 l357 0 355 367 355 368 -26 27 c-15 16 -32 28 -37 28 -6 0
-163 -158 -349 -350z"/>
<path d="M12941 15948 c-56 -10 -109 -51 -138 -108 -46 -88 -19 -195 64 -253
l43 -31 0 -507 0 -507 -185 -168 -186 -168 33 -33 32 -33 36 33 c19 19 108
100 198 181 l162 148 0 522 0 521 49 18 c65 23 116 79 129 144 32 147 -87 268
-237 241z"/>
<path d="M14722 15939 c-42 -21 -92 -74 -92 -97 0 -9 -144 -13 -547 -14 l-548
-3 4 -1005 3 -1005 -311 -278 -311 -279 0 -332 0 -333 -137 -6 c-75 -4 -174
-7 -220 -7 l-83 0 0 -45 0 -45 265 0 265 0 0 363 0 363 311 279 311 279 -4
977 -3 976 89 7 c49 3 270 6 492 6 l402 0 12 -37 c54 -167 274 -196 365 -48
57 92 32 210 -58 272 -55 38 -144 43 -205 12z"/>
<path d="M3985 15913 c-73 -38 -114 -105 -115 -185 l0 -46 -177 -109 -178
-108 -592 -5 c-325 -3 -594 -7 -597 -11 -3 -3 -2 -142 1 -309 l6 -303 724 7
c452 4 723 3 723 -3 0 -19 53 -72 91 -91 42 -22 121 -26 166 -9 35 13 90 64
110 104 21 39 21 131 0 170 -20 40 -75 91 -110 104 -43 17 -117 13 -164 -8
-48 -22 -99 -87 -109 -137 l-6 -34 -397 0 c-219 0 -520 -3 -669 -7 l-272 -6 0
215 0 215 332 6 c182 4 433 7 557 7 l226 0 189 115 c189 114 190 115 211 95
56 -53 163 -65 229 -27 84 48 121 131 102 232 -8 43 -68 113 -113 132 -43 18
-131 16 -168 -4z"/>
<path d="M23874 14940 l7 -670 -280 0 c-271 0 -280 1 -286 20 -10 33 -55 80
-96 100 -45 24 -125 26 -172 6 -87 -37 -137 -142 -113 -237 50 -189 325 -199
386 -13 l13 37 579 -5 c319 -3 582 -9 586 -13 4 -4 8 -345 10 -759 l2 -753
-181 -6 c-100 -4 -534 -7 -963 -7 l-781 0 -208 208 -207 207 0 83 0 82 353 0
c193 0 469 3 613 7 l261 6 7 -26 c17 -68 113 -137 191 -137 105 0 205 100 205
205 0 126 -127 224 -252 195 -59 -15 -121 -65 -139 -114 l-12 -33 -610 -6
c-336 -4 -612 -5 -614 -3 -2 1 0 206 4 455 l6 452 31 13 c50 22 97 79 112 135
42 165 -126 304 -281 232 -152 -70 -154 -285 -2 -362 l37 -19 0 -164 0 -163
-242 -6 c-133 -4 -283 -7 -335 -7 l-93 0 0 -529 0 -530 -30 -18 c-109 -64
-119 -228 -20 -317 146 -131 370 2 329 195 -14 64 -67 124 -128 146 l-48 17
-6 155 c-4 86 -7 299 -7 474 l0 317 291 0 291 0 -3 -387 -2 -387 239 -235 240
-236 975 4 976 3 6 -258 c4 -141 7 -315 7 -386 l0 -128 -37 -1 c-21 -1 -303
-5 -628 -8 l-590 -6 4 -321 4 -321 -37 -22 c-69 -43 -107 -142 -86 -220 14
-53 79 -126 127 -142 57 -18 137 -7 185 27 57 40 83 94 83 171 0 52 -5 68 -31
105 -32 46 -95 88 -131 88 l-23 0 0 275 0 275 626 0 627 0 -4 663 -4 662 281
3 281 2 6 -406 c4 -224 7 -702 7 -1063 l-1 -656 -38 -26 c-133 -92 -91 -313
67 -354 132 -35 253 56 253 189 0 94 -55 171 -140 197 l-39 12 -6 131 c-3 72
-8 777 -11 1566 l-6 1436 43 11 c99 27 165 142 138 242 -13 50 -72 119 -117
138 -85 35 -194 2 -248 -75 -26 -38 -30 -52 -30 -111 0 -57 4 -74 28 -110 16
-23 44 -52 63 -63 l34 -20 0 -474 0 -474 -285 0 -285 0 0 579 0 579 -31 6
c-17 3 -159 6 -315 6 l-284 0 0 291 0 292 98 -6 c53 -4 162 -9 242 -12 80 -3
173 -8 207 -11 60 -5 61 -6 68 -40 7 -40 64 -108 109 -131 40 -21 132 -21 171
0 40 20 91 75 104 110 46 121 -41 262 -168 275 -85 8 -150 -27 -206 -110 -9
-13 -47 -13 -315 0 -168 8 -306 15 -306 16 -1 0 -5 151 -9 334 l-8 332 -45 0
-45 0 7 -670z"/>
<path d="M13980 15339 c-109 -44 -162 -177 -111 -278 22 -42 84 -101 106 -101
13 0 15 -86 15 -654 0 -359 3 -674 6 -700 l7 -46 353 0 354 0 0 795 0 795 -48
0 -49 0 5 -744 5 -744 -262 -7 c-144 -4 -264 -5 -266 -3 -3 3 -8 295 -12 650
l-6 645 31 6 c39 8 111 71 129 114 30 73 9 177 -49 230 -50 47 -146 66 -208
42z"/>
<path d="M605 15115 c-5 -2 -22 -6 -38 -9 -36 -8 -107 -73 -124 -113 -19 -47
-16 -127 7 -172 19 -38 72 -91 91 -91 5 0 9 -68 9 -157 0 -87 3 -276 7 -420
l6 -262 1316 6 1316 6 260 -291 259 -292 328 0 328 0 13 -32 c19 -46 88 -105
138 -118 126 -34 249 64 249 199 0 210 -288 276 -380 86 l-22 -45 -306 0 -307
1 -125 141 c-69 78 -187 210 -262 294 l-137 152 -918 -4 c-505 -2 -1086 -6
-1290 -8 l-373 -4 0 362 0 363 40 12 c147 44 188 235 73 343 -15 15 -39 31
-53 36 -32 12 -92 21 -105 17z"/>
<path d="M7146 14676 c-49 -19 -112 -80 -127 -124 -18 -54 -7 -134 25 -182
l27 -41 -131 -362 -130 -363 0 -296 0 -296 -312 -6 c-172 -3 -890 -8 -1594
-11 l-1281 -6 -13 31 c-55 133 -221 167 -325 66 -65 -62 -82 -144 -46 -221 49
-105 166 -152 266 -106 45 20 102 79 111 115 l5 23 1081 6 c595 4 1333 7 1640
7 l558 0 0 336 0 335 126 352 127 352 63 0 c54 0 69 5 106 31 87 61 114 171
65 265 -44 82 -156 126 -241 95z"/>
<path d="M17233 14593 l-483 -3 0 -46 0 -47 880 5 879 4 278 -293 278 -293
541 0 c485 0 542 -2 548 -16 3 -9 6 -255 6 -547 l-1 -532 -43 -26 c-50 -31
-96 -111 -96 -168 0 -58 42 -136 91 -168 37 -24 52 -28 115 -28 64 0 77 3 115
30 49 34 79 88 86 149 10 88 -63 193 -148 211 l-29 7 -2 591 -3 592 -570 -3
-570 -4 -279 296 -280 296 -415 -2 c-229 -2 -633 -4 -898 -5z"/>
<path d="M16600 14339 c-98 -39 -147 -173 -101 -274 17 -37 72 -95 90 -95 4 0
11 -64 14 -141 3 -78 8 -144 11 -146 3 -3 389 7 858 21 469 14 881 26 914 26
l61 0 7 -37 c21 -133 183 -201 301 -128 68 42 98 100 93 181 -5 83 -40 137
-111 170 -89 41 -166 26 -235 -45 l-43 -44 -752 -23 c-414 -12 -809 -25 -879
-27 l-128 -6 0 88 0 88 40 12 c108 32 170 160 129 268 -14 38 -67 92 -106 109
-37 16 -126 17 -163 3z"/>
<path d="M8730 14202 l-935 -2 -278 -250 -278 -250 -55 0 c-67 0 -109 -17
-151 -61 -40 -43 -53 -77 -53 -140 0 -216 301 -276 385 -77 28 69 15 156 -32
210 -13 14 10 38 235 241 l250 225 404 6 c592 9 2318 14 2317 7 0 -3 -156
-156 -346 -338 l-346 -333 -438 0 -439 0 0 63 0 64 41 12 c22 7 57 29 78 51
129 133 38 344 -147 342 -128 -1 -225 -128 -192 -251 12 -47 59 -105 101 -127
28 -14 29 -18 29 -83 0 -54 -4 -70 -16 -75 -9 -3 -249 -6 -535 -6 l-519 0 0
-45 0 -45 628 0 c345 0 812 3 1038 7 l412 6 408 394 c225 217 425 410 444 429
l35 34 -555 -2 c-305 -2 -976 -4 -1490 -6z"/>
<path d="M12419 13791 c-86 -47 -131 -138 -109 -221 6 -25 12 -54 13 -65 1
-12 -71 -122 -171 -261 l-172 -241 0 -527 0 -526 -437 0 -438 0 -540 -626
-540 -627 3 -431 c1 -237 5 -1024 8 -1748 l7 -1318 49 0 c27 0 47 3 45 8 -3 4
-8 783 -12 1732 l-7 1725 514 597 513 597 468 0 469 1 -8 554 -7 553 164 231
c140 197 167 231 184 225 11 -3 48 -8 81 -10 48 -4 70 0 102 16 70 36 112 105
112 187 0 49 -47 132 -92 162 -54 35 -146 41 -199 13z"/>
<path d="M485 13706 c-44 -19 -102 -88 -115 -137 -21 -78 13 -168 83 -216 55
-38 146 -44 205 -14 49 25 99 88 108 137 l6 34 467 0 c257 0 583 3 723 7 l256
6 273 -263 274 -264 6 -330 c10 -540 10 -1066 0 -1066 -19 0 -73 -54 -93 -94
-13 -25 -21 -60 -21 -91 0 -172 201 -265 330 -152 121 106 85 290 -68 344
l-49 18 -1 620 c-1 341 -4 659 -8 706 l-6 86 -300 288 -300 288 -750 -7 -750
-6 -26 38 c-48 71 -164 103 -244 68z"/>
<path d="M16741 13405 c-53 -17 -97 -57 -122 -110 -77 -165 100 -342 266 -266
51 23 102 81 110 125 l7 34 291 6 c161 3 748 7 1305 9 l1012 4 0 -372 c0 -204
3 -488 7 -630 l6 -257 207 7 207 7 22 -45 c65 -134 244 -156 339 -42 122 148
-15 369 -201 324 -59 -14 -121 -65 -139 -115 l-12 -34 -168 0 -168 0 0 228 c0
125 -3 406 -7 625 l-6 397 -1351 -6 -1351 -7 -25 39 c-46 72 -145 106 -229 79z"/>
<path d="M13526 13185 c-54 -19 -103 -70 -122 -128 -24 -73 -7 -145 49 -201
39 -39 98 -66 143 -66 71 0 163 62 186 126 l12 34 209 0 209 0 -6 -117 c-3
-65 -8 -444 -11 -843 -3 -399 -8 -787 -11 -862 l-6 -138 -274 0 -274 0 0 493
c0 272 -3 623 -7 781 l-6 287 -41 -3 c-37 -3 -41 -6 -45 -33 -2 -16 0 -387 4
-823 l7 -792 367 2 366 3 12 1060 c7 583 11 1065 9 1071 -3 8 -76 10 -249 6
l-245 -5 -20 39 c-53 102 -154 146 -256 109z"/>
<path d="M1996 13125 c-48 -17 -91 -58 -113 -107 l-17 -38 -527 0 -526 0 -37
35 c-125 118 -335 28 -336 -144 0 -105 69 -189 170 -206 106 -18 230 81 230
183 l0 29 287 6 c157 4 388 7 513 7 l226 0 18 -40 c28 -64 113 -120 182 -120
141 0 244 159 185 285 -47 101 -152 147 -255 110z"/>
<path d="M5665 12798 c-80 -28 -135 -106 -135 -192 0 -119 116 -220 230 -201
60 10 122 55 150 108 l25 47 295 0 c162 0 359 3 438 7 l142 6 0 -180 0 -180
-152 -6 c-83 -4 -337 -7 -563 -7 l-412 0 5 -1077 4 -1078 -31 -20 c-102 -65
-120 -208 -38 -301 112 -128 310 -73 348 97 20 89 -40 194 -130 226 l-48 17
-6 185 c-4 102 -7 563 -7 1024 l0 837 279 0 278 0 6 -67 c4 -38 7 -150 7 -250
l0 -183 -54 -52 c-81 -79 -94 -154 -45 -250 60 -118 253 -132 332 -26 52 71
59 137 23 215 -27 56 -77 98 -134 109 l-32 7 0 248 0 249 233 2 232 3 3 100
c2 55 0 178 -3 274 l-7 174 -483 -5 -483 -5 -17 38 c-43 95 -152 141 -250 107z"/>
<path d="M16395 12793 c-74 -39 -115 -104 -115 -183 0 -216 286 -277 384 -83
9 18 16 44 16 58 0 14 6 27 13 29 6 3 540 7 1185 11 l1172 6 0 -439 0 -440
-492 -6 c-271 -4 -845 -7 -1276 -9 l-782 -2 0 173 c0 94 4 172 9 172 4 0 319
18 700 40 380 22 704 40 720 40 21 0 32 -6 36 -20 21 -65 106 -120 186 -120
139 0 233 123 195 254 -27 93 -111 151 -208 144 -76 -6 -133 -44 -167 -114
l-25 -49 -765 -44 c-421 -24 -769 -46 -772 -50 -3 -3 -4 -122 -1 -263 l5 -257
1256 5 c1367 5 1486 7 1477 31 -3 8 -6 247 -6 530 l0 516 -1240 -7 -1240 -7
-26 31 c-56 65 -168 91 -239 53z"/>
<path d="M8659 12697 c-125 -66 -145 -235 -40 -330 95 -86 250 -58 311 55 l23
45 321 6 c177 4 459 7 629 7 l307 0 0 -371 c0 -204 -4 -369 -8 -367 -5 2 -108
59 -229 128 l-221 125 -5 44 c-10 93 -101 171 -200 171 -146 0 -247 -161 -182
-290 18 -35 75 -87 108 -99 42 -16 123 -13 160 5 18 9 46 30 64 46 l31 30 279
-157 c153 -87 281 -160 286 -162 4 -2 7 219 7 491 l0 496 -675 0 -675 0 -11
28 c-39 102 -179 152 -280 99z"/>
<path d="M15483 12703 l-263 -3 0 -438 -1 -437 -40 -28 c-71 -49 -101 -164
-63 -240 75 -148 262 -164 355 -29 33 49 39 144 10 199 -26 53 -73 91 -127
105 l-44 12 0 383 0 383 285 0 285 0 0 -395 c0 -247 -4 -395 -10 -395 -22 0
-80 -64 -96 -106 -50 -130 48 -274 187 -274 61 0 96 13 137 53 48 46 65 84 66
147 1 93 -65 179 -151 196 l-30 6 -6 211 c-4 115 -7 311 -7 434 l0 223 -112
-2 c-62 -2 -231 -4 -375 -5z"/>
<path d="M7355 11856 l8 -723 -551 -5 c-304 -2 -553 -6 -555 -9 -1 -2 0 -411
3 -909 l5 -905 44 0 45 0 -3 863 -3 862 169 0 c92 0 340 3 551 7 l383 6 -3
694 c-2 491 0 693 8 691 6 -2 515 -259 1131 -572 761 -386 1120 -573 1116
-582 -2 -7 2 -37 11 -66 47 -164 262 -200 360 -60 34 48 45 121 26 177 -31 94
-137 157 -229 136 -45 -10 -121 -55 -121 -71 0 -6 -5 -10 -11 -10 -6 0 -543
270 -1193 600 -651 330 -1186 600 -1190 600 -4 0 -5 -326 -1 -724z"/>
<path d="M913 12523 l-303 -3 0 -47 0 -46 780 6 779 6 6 -32 c3 -18 43 -318
90 -666 69 -522 88 -638 102 -652 10 -9 244 -202 521 -428 l504 -411 376 0
c207 0 414 3 460 7 l82 6 0 45 0 45 -442 -6 -443 -6 -470 385 c-258 212 -481
395 -494 405 -24 19 -28 43 -117 707 -51 378 -93 688 -93 690 -1 2 -848 -1
-1338 -5z"/>
<path d="M12556 12298 c-21 -6 -57 -29 -81 -52 -62 -59 -81 -139 -50 -213 18
-42 58 16 -304 -443 l-241 -305 0 -712 c0 -456 4 -714 10 -718 5 -3 155 -43
332 -89 l323 -83 7 -714 c5 -540 3 -715 -5 -718 -7 -2 -31 -23 -53 -45 -111
-110 -62 -296 88 -337 168 -45 313 135 233 291 -21 41 -80 88 -125 100 l-40
11 0 242 c0 133 -3 467 -7 742 l-6 501 -327 83 -327 83 -7 82 c-3 44 -6 343
-6 663 l0 583 261 332 c144 183 265 336 269 341 3 4 23 1 43 -8 76 -32 165 -9
224 58 48 55 63 123 42 188 -36 106 -147 166 -253 137z"/>
<path d="M4209 12193 l-486 -3 -102 -114 -103 -113 -39 9 c-126 33 -248 -63
-249 -195 0 -63 18 -104 68 -149 71 -64 160 -72 239 -21 86 55 117 161 75 256
l-21 46 87 96 87 95 703 2 c386 1 739 3 785 3 l82 0 3 -316 2 -317 -132 -6
c-73 -3 -365 -8 -648 -11 -283 -3 -660 -8 -837 -12 l-323 -6 0 -43 0 -44 68 0
c219 -1 1884 22 1920 26 l42 5 -2 407 -3 407 -365 0 c-201 0 -584 -1 -851 -2z"/>
<path d="M548 12080 c-47 -25 -84 -73 -99 -131 -33 -123 65 -249 194 -249 62
0 95 14 143 62 l42 40 446 5 446 6 0 44 0 43 -433 0 -433 0 -11 43 c-16 59
-52 108 -98 134 -52 30 -144 31 -197 3z"/>
<path d="M12683 11460 l-243 -520 0 -173 c0 -96 3 -276 7 -401 l6 -228 388 4
c213 2 391 6 395 11 4 4 -27 130 -69 280 -43 149 -77 275 -77 279 0 3 15 16
34 28 43 26 86 109 86 164 -1 118 -119 222 -229 201 -95 -18 -156 -79 -174
-173 -17 -89 54 -199 143 -222 l46 -11 63 -225 c35 -124 62 -226 60 -228 -2
-2 -133 -6 -291 -9 l-288 -5 -2 346 -3 347 238 508 c130 280 237 510 237 513
0 6 -58 34 -72 34 -7 0 -119 -228 -255 -520z"/>
<path d="M7780 11929 c-78 -32 -129 -107 -130 -192 0 -61 27 -114 82 -162 l43
-36 3 -583 3 -583 -158 -6 c-87 -4 -302 -7 -479 -7 l-320 0 4 -763 5 -763 -41
-26 c-118 -79 -105 -275 23 -342 54 -28 136 -28 190 0 93 48 132 172 85 269
-24 50 -74 90 -132 106 l-38 10 0 709 0 710 475 0 475 0 0 635 c0 633 0 635
20 635 47 0 128 67 149 123 27 72 4 173 -51 224 -50 47 -146 66 -208 42z"/>
<path d="M19669 11637 c-120 -64 -140 -233 -38 -328 26 -24 32 -45 74 -265 25
-131 49 -250 54 -264 l8 -25 1006 4 1007 3 0 -284 c0 -157 3 -380 7 -497 l6
-212 41 3 41 3 3 210 c2 116 0 359 -3 541 l-7 331 -1016 -1 -1016 -1 -37 190
c-21 105 -38 196 -38 203 -1 7 11 12 27 12 42 1 107 34 135 72 80 104 48 252
-66 307 -59 29 -131 28 -188 -2z"/>
<path d="M8277 11630 c-80 -25 -136 -105 -137 -193 0 -63 18 -104 68 -149 71
-64 153 -72 237 -23 l40 23 550 -300 c303 -165 551 -301 551 -302 1 0 5 -517
9 -1148 l8 -1148 -287 0 -286 0 0 613 c0 338 -3 728 -7 869 l-6 254 32 14 c78
32 124 101 124 185 0 147 -148 246 -278 186 -106 -49 -152 -165 -106 -266 20
-45 79 -102 115 -111 l23 -5 6 -616 c4 -339 7 -751 7 -915 l0 -298 375 0 375
0 -1 843 c-1 463 -5 1013 -8 1221 l-6 380 -569 310 -570 311 3 60 c4 115 -70
202 -180 210 -29 3 -67 0 -82 -5z"/>
<path d="M1686 11575 c-109 -39 -164 -167 -117 -270 17 -39 81 -105 101 -105
6 0 10 -94 10 -243 l0 -244 308 -185 307 -186 2 -49 c2 -61 14 -92 53 -136 90
-103 262 -81 327 42 60 115 -8 262 -134 289 -60 13 -110 3 -165 -33 -29 -19
-46 -24 -58 -18 -10 4 -137 80 -283 168 l-266 160 -1 207 0 207 36 10 c192 53
195 326 5 390 -44 14 -77 13 -125 -4z"/>
<path d="M10857 10955 l-458 -607 6 -1217 c3 -669 8 -1387 11 -1597 l6 -381
303 5 303 5 12 -39 c30 -92 100 -144 195 -144 58 0 116 22 147 57 24 26 58
104 58 133 0 78 -67 178 -137 201 -88 29 -198 -11 -239 -86 l-19 -35 -267 0
-268 0 -1 168 c0 92 -4 781 -9 1532 l-8 1365 366 487 367 488 6 -448 c3 -246
7 -607 8 -802 l1 -356 325 -189 324 -190 1 -614 0 -614 -40 -35 c-81 -68 -103
-166 -57 -253 60 -112 211 -143 308 -62 100 85 90 254 -19 324 -25 16 -56 29
-68 29 -14 0 -24 8 -28 23 -3 12 -6 299 -6 638 l0 617 -322 189 -323 189 -7
874 c-4 481 -8 893 -10 914 -3 38 -11 29 -461 -569z"/>
<path d="M16425 11378 c-144 -50 -186 -225 -81 -333 23 -23 47 -44 53 -46 10
-3 15 -313 21 -1467 l7 -1462 335 -335 334 -335 33 32 33 32 -320 321 -320
320 -5 895 c-3 492 -7 1138 -10 1436 l-5 541 40 12 c52 15 108 65 131 116 70
154 -87 329 -246 273z"/>
<path d="M17065 11328 c-2 -7 -30 -596 -62 -1308 l-59 -1295 212 -464 212
-463 -23 -35 c-81 -118 -4 -285 142 -309 127 -20 249 102 229 229 -18 111
-121 189 -230 173 l-41 -6 -204 445 -204 445 58 1247 c31 687 59 1250 62 1253
2 3 265 6 584 8 l579 3 0 44 0 45 -625 0 c-492 0 -626 -3 -630 -12z"/>
<path d="M15571 11226 l-344 -101 6 -1280 c4 -704 7 -1491 8 -1750 l0 -470
229 -208 229 -208 3 -592 c3 -582 3 -592 -17 -607 -117 -87 -126 -235 -22
-327 63 -55 145 -65 222 -26 59 30 90 72 106 143 21 93 -49 207 -142 230 l-46
12 -6 411 c-4 227 -7 498 -7 604 l0 192 -224 205 -224 205 -6 323 c-3 178 -8
942 -12 1698 l-5 1376 268 79 c147 43 289 85 315 92 l46 14 -10 37 c-5 20 -13
40 -16 43 -4 4 -162 -39 -351 -95z"/>
<path d="M23860 10852 l0 -478 559 -223 558 -224 -5 -43 c-12 -110 90 -224
202 -224 99 0 206 107 206 206 0 104 -101 204 -205 204 -37 0 -98 -23 -136
-51 -12 -9 -120 31 -546 202 l-532 213 -6 70 c-3 39 -5 116 -3 171 l3 100 190
3 191 2 22 -45 c41 -85 145 -132 234 -106 49 15 114 73 134 119 52 127 -53
282 -192 282 -66 0 -146 -52 -177 -116 l-21 -44 -193 0 -193 0 0 230 0 230
-45 0 -45 0 0 -478z"/>
<path d="M18700 11294 c-83 -36 -140 -136 -124 -218 15 -82 88 -153 176 -171
l28 -5 2 -362 3 -361 940 2 c517 0 1037 4 1156 8 l216 6 7 -26 c9 -39 65 -97
111 -118 100 -46 217 1 266 106 68 147 -71 313 -230 275 -59 -14 -114 -58
-137 -109 l-16 -38 -556 -6 c-305 -4 -807 -7 -1114 -7 l-558 0 0 328 0 327 36
29 c110 88 91 266 -35 333 -51 27 -119 30 -171 7z"/>
<path d="M22406 11205 c-98 -35 -154 -142 -126 -243 12 -46 69 -117 101 -127
17 -6 19 -17 19 -119 l0 -113 853 -412 c468 -227 862 -419 875 -427 l22 -14 0
-330 0 -329 200 -132 200 -131 0 -54 c0 -117 87 -204 202 -204 112 1 198 90
198 205 0 130 -123 224 -250 191 -28 -7 -62 -23 -75 -36 -14 -13 -29 -19 -37
-14 -7 4 -88 57 -180 117 l-168 109 0 335 0 334 -27 15 c-16 9 -408 200 -873
424 l-845 408 -3 76 -3 75 43 12 c58 15 122 80 138 139 21 79 -2 153 -64 208
-57 50 -128 63 -200 37z"/>
<path d="M3363 11044 c-71 -26 -133 -113 -133 -189 0 -105 100 -205 205 -205
76 0 174 69 191 134 l6 24 666 4 c367 2 670 2 675 0 4 -2 7 -321 7 -710 l-1
-707 -38 -26 c-101 -70 -107 -232 -10 -313 44 -37 73 -47 137 -47 127 0 218
116 190 244 -13 64 -64 121 -128 144 l-47 17 -7 164 c-3 91 -6 428 -6 750 l0
585 -719 -8 -718 -7 -7 26 c-11 43 -72 103 -123 120 -56 19 -85 19 -140 0z"/>
<path d="M8270 10310 l0 -570 -245 0 -244 0 -16 29 c-28 55 -110 101 -180 101
-49 0 -129 -45 -161 -91 -32 -47 -43 -127 -25 -182 23 -68 122 -137 197 -137
33 0 86 20 122 47 29 22 60 72 76 126 5 16 25 17 241 17 l235 0 0 -285 0 -285
-345 0 c-283 0 -345 2 -345 13 0 28 -62 99 -103 118 -49 22 -124 25 -170 6
-45 -19 -104 -88 -117 -138 -21 -78 13 -168 83 -216 55 -38 146 -44 205 -14
41 21 102 91 102 116 0 20 99 25 458 25 l335 0 -6 398 c-4 218 -7 643 -7 945
l0 547 -45 0 -45 0 0 -570z"/>
<path d="M15890 10784 c-141 -61 -164 -268 -39 -351 l39 -26 1 -221 c1 -121 4
-714 8 -1316 l6 -1095 263 -553 263 -553 -107 -652 c-79 -483 -111 -655 -122
-664 -9 -7 -27 -13 -41 -13 -37 0 -106 -45 -131 -86 -110 -177 78 -387 261
-291 122 65 146 237 44 325 l-33 30 112 682 113 682 -262 552 -262 551 -6 435
c-4 239 -8 826 -9 1304 l-2 869 43 13 c127 37 182 197 105 306 -55 78 -159
109 -244 72z"/>
<path d="M17751 10765 c-163 -52 -189 -261 -45 -364 l34 -24 0 -529 0 -530
1010 8 1010 7 0 -272 0 -271 -552 0 c-304 0 -765 -3 -1025 -7 l-471 -6 -15 34
c-49 115 -186 159 -292 94 -116 -72 -128 -248 -23 -328 105 -80 252 -48 308
68 l22 45 129 0 129 0 1 -302 c1 -167 4 -363 8 -437 l6 -134 230 215 c200 188
232 214 245 202 27 -23 88 -44 130 -44 112 0 200 88 200 200 0 64 -18 106 -63
149 -130 123 -346 23 -335 -156 l3 -56 -160 -151 -160 -150 -7 329 c-3 182 -5
331 -5 332 1 0 383 5 848 9 l847 7 7 -137 c4 -75 6 -138 4 -140 -4 -3 -1246
-809 -1392 -903 l-67 -43 22 -35 c14 -21 29 -34 38 -32 8 2 325 205 703 451
379 245 690 446 693 446 2 0 4 -72 4 -160 0 -91 -4 -160 -9 -160 -19 0 -72
-53 -91 -91 -29 -57 -27 -140 5 -195 67 -114 228 -133 316 -37 62 66 76 151
38 230 -25 51 -67 86 -126 104 l-43 12 0 447 c0 246 -3 542 -7 658 l-6 212
344 0 c189 0 361 3 382 6 36 7 37 7 37 52 l0 45 -487 -6 c-269 -4 -893 -8
-1388 -9 l-900 -3 -3 475 -2 475 49 18 c64 22 115 78 130 144 37 151 -109 285
-258 238z"/>
<path d="M13725 10621 c-48 -21 -89 -67 -105 -116 -6 -19 -16 -35 -21 -35 -5
0 -9 -22 -9 -50 0 -38 4 -50 15 -50 8 0 15 -4 15 -10 0 -17 72 -90 104 -107
40 -21 132 -21 171 0 34 17 87 71 104 105 l12 22 314 0 315 0 0 -587 c0 -493
-2 -585 -13 -573 -8 8 -127 171 -266 362 -138 191 -256 350 -261 353 -11 7
-70 -31 -70 -45 0 -11 664 -926 692 -955 20 -20 20 -20 14 470 -3 270 -6 619
-6 778 l0 287 -358 0 -358 0 -13 35 c-29 80 -106 135 -191 135 -25 0 -63 -9
-85 -19z"/>
<path d="M22259 10207 c-64 -34 -104 -102 -104 -177 0 -187 226 -270 355 -131
l36 40 382 -167 382 -167 0 -265 0 -265 374 -300 374 -300 -181 -6 c-100 -4
-370 -7 -599 -8 l-418 -1 0 -45 0 -45 673 1 c369 1 697 4 728 8 l56 6 -452
363 -452 364 -7 51 c-3 29 -6 154 -6 278 l0 225 -418 183 -418 182 -13 47 c-7
26 -23 61 -36 78 -55 72 -172 95 -256 51z"/>
<path d="M19506 9945 c-76 -27 -136 -110 -136 -190 0 -102 100 -205 197 -205
80 0 171 59 193 124 l11 33 682 5 c375 3 684 2 687 -2 3 -5 41 -128 85 -275
l80 -267 628 4 c596 3 627 2 627 -15 0 -27 28 -89 53 -115 37 -40 91 -62 153
-62 170 0 263 199 152 326 -86 97 -220 99 -307 5 l-36 -39 -600 -7 -600 -7
-74 243 c-41 134 -78 259 -83 278 l-10 34 -718 -7 -718 -7 -10 29 c-17 48 -69
99 -119 116 -56 19 -86 20 -137 1z"/>
<path d="M10784 8716 c3 -627 8 -1141 9 -1143 2 -2 117 0 255 4 l252 6 0 44 0
43 -208 0 -209 0 -7 941 c-4 518 -6 943 -4 944 2 1 85 -113 184 -255 l181
-257 5 -291 c4 -272 3 -292 -13 -297 -29 -10 -87 -81 -98 -122 -15 -54 -13
-92 8 -138 49 -105 166 -152 266 -106 70 31 125 113 125 185 0 77 -74 176
-146 192 l-39 10 -5 294 -5 295 -279 395 -279 395 7 -1139z"/>
<path d="M12942 9068 l3 -703 44 0 44 0 -2 651 -2 651 92 6 c51 4 211 7 356 7
l263 0 0 -78 0 -79 -37 -24 c-42 -27 -79 -86 -88 -140 -19 -112 84 -229 200
-229 102 0 205 100 205 197 0 88 -69 181 -146 200 l-39 9 -3 117 -3 117 -444
0 -445 0 2 -702z"/>
<path d="M13270 8787 l0 -274 113 -6 c61 -4 304 -7 539 -7 l426 0 10 -27 c5
-16 141 -395 301 -844 l292 -816 -33 -48 c-30 -42 -33 -54 -33 -115 0 -60 4
-74 30 -111 55 -78 163 -111 248 -76 45 19 104 88 117 138 34 124 -64 249
-196 249 l-49 0 -310 868 -310 867 -375 6 c-206 3 -444 7 -527 8 l-153 1 0
230 0 230 -45 0 -45 0 0 -273z"/>
<path d="M21039 8945 c-51 -16 -114 -77 -125 -120 l-6 -25 -312 0 c-171 0
-335 -3 -365 -7 l-53 -6 7 -647 7 -648 -28 -6 c-16 -3 -550 -100 -1187 -216
l-1157 -210 -32 36 c-103 117 -284 92 -343 -48 -29 -70 -13 -162 38 -216 66
-71 192 -84 263 -26 54 43 75 75 81 122 3 23 7 42 10 42 2 0 375 68 828 150
453 83 829 150 835 150 7 0 10 -129 10 -390 l0 -390 -602 0 c-331 0 -599 2
-597 4 2 1 73 51 158 110 l154 108 51 -26 c86 -44 169 -32 239 33 44 40 60 80
60 143 0 113 -85 198 -200 198 -124 0 -213 -97 -201 -221 l5 -48 -279 -192
c-153 -106 -278 -197 -278 -203 0 -6 92 -7 248 -3 136 4 494 7 796 7 l549 0
-7 444 -7 445 38 7 c21 4 153 28 293 54 l255 46 3 -170 c2 -114 -1 -172 -8
-174 -25 -9 -72 -57 -90 -93 -23 -45 -26 -125 -7 -172 19 -45 89 -105 132
-113 101 -19 184 18 232 102 61 106 -2 254 -123 286 l-43 12 -3 810 c-2 446
-3 812 -3 812 0 1 140 4 312 7 l312 6 21 -45 c80 -163 324 -144 375 30 48 159
-98 301 -256 251z"/>
<path d="M22095 8593 c-44 -23 -74 -53 -96 -95 -11 -21 -23 -39 -27 -39 -4 -1
-288 -5 -631 -8 l-624 -6 2 -871 2 -872 -386 -277 -386 -277 -1057 -5 -1057
-6 -22 46 c-14 30 -38 56 -64 74 -37 24 -53 28 -114 28 -62 0 -77 -4 -112 -28
-116 -80 -117 -258 -2 -334 57 -38 148 -44 207 -14 42 21 85 69 96 107 6 19
16 22 113 27 58 4 514 7 1012 7 498 0 936 3 973 6 l67 7 413 296 412 296 -3
853 -3 852 590 0 590 0 6 -24 c17 -68 104 -126 188 -126 171 1 263 206 150
332 -20 23 -51 47 -69 55 -43 18 -131 16 -168 -4z"/>
<path d="M7381 8445 c-53 -17 -97 -57 -122 -110 -76 -163 102 -341 266 -266
75 34 135 131 122 198 l-4 23 318 0 319 0 0 -297 0 -296 599 5 599 6 24 -46
c43 -83 155 -131 242 -102 82 27 139 107 139 195 0 175 -204 266 -333 149 -22
-20 -45 -50 -51 -68 l-12 -33 -550 -6 c-303 -3 -554 -4 -559 -1 -4 3 -8 135
-8 295 l0 289 -384 0 c-337 0 -385 2 -397 16 -19 23 -82 53 -126 59 -21 2 -58
-2 -82 -10z"/>
<path d="M23899 8070 c-41 -21 -99 -83 -99 -105 0 -8 -14 -16 -32 -19 -18 -3
-593 -56 -1278 -117 -685 -61 -1248 -114 -1251 -117 -4 -4 -23 -322 -44 -707
-36 -685 -37 -700 -58 -715 -93 -63 -130 -167 -92 -258 65 -155 283 -168 365
-22 29 53 32 137 7 186 -23 44 -80 91 -128 105 l-41 13 6 80 c3 45 20 340 37
656 17 316 32 577 35 579 4 4 2388 220 2436 221 21 0 29 -6 37 -33 13 -39 74
-101 114 -116 45 -17 124 -13 165 8 154 79 148 300 -10 366 -50 20 -125 18
-169 -5z"/>
<path d="M23272 7379 c-23 -12 -51 -32 -61 -45 l-19 -24 -803 -2 -804 -3 -3
-205 c-2 -113 0 -310 3 -438 l7 -232 259 -175 c142 -96 262 -175 267 -175 13
0 52 62 46 72 -3 4 -113 80 -244 168 l-238 161 -4 362 c-2 199 -2 363 -1 365
0 2 334 6 741 9 l739 6 7 -43 c10 -61 42 -115 89 -147 35 -24 50 -28 112 -28
93 0 145 31 181 108 36 78 29 144 -23 215 -53 71 -165 93 -251 51z"/>
<path d="M16645 7355 c-80 -28 -146 -140 -129 -219 11 -51 42 -103 76 -129 40
-30 111 -51 149 -43 27 5 30 1 193 -324 l166 -328 0 -362 0 -362 800 3 800 4
2 -352 c1 -194 2 -372 3 -395 l0 -43 -293 -105 -293 -106 1 -881 0 -882 -29
-17 c-54 -32 -91 -102 -91 -173 1 -113 121 -216 229 -196 95 18 156 79 174
173 17 86 -54 198 -139 221 l-41 11 -6 202 c-4 112 -7 489 -7 839 0 597 1 637
18 644 9 4 134 49 277 100 143 51 269 97 279 101 18 7 19 22 15 433 l-4 426
122 3 122 3 5 -43 c3 -24 15 -207 26 -408 11 -200 24 -367 28 -371 4 -4 153
-111 332 -239 179 -127 333 -239 342 -248 15 -16 17 -153 25 -1772 l9 -1755
-44 -39 c-49 -43 -81 -104 -82 -151 0 -136 122 -236 252 -204 84 20 158 112
158 195 0 78 -63 164 -140 191 l-47 17 -6 449 c-4 248 -8 784 -8 1191 -1 408
-5 1006 -8 1331 l-6 590 -345 248 -345 247 -6 53 c-9 74 -43 706 -38 711 2 2
372 6 822 9 l817 5 19 -43 c37 -83 139 -130 228 -106 102 27 159 106 151 211
-3 42 -12 69 -31 97 -86 125 -276 114 -345 -18 l-23 -47 -862 -6 c-474 -3
-1282 -8 -1794 -12 l-933 -6 0 332 0 332 -171 335 -171 334 20 22 c93 99 51
267 -80 321 -46 19 -90 20 -143 1z"/>
<path d="M22079 6867 c-158 -84 -136 -321 34 -372 61 -18 106 -12 164 21 42
24 93 94 93 127 0 15 24 17 250 17 l250 0 0 45 0 45 -255 0 c-200 0 -255 3
-255 13 0 24 -63 90 -104 108 -57 26 -123 24 -177 -4z"/>
<path d="M19947 5355 c-54 -14 -112 -63 -133 -112 -19 -44 -18 -127 2 -166 37
-73 88 -107 175 -116 l57 -6 225 -252 226 -251 6 -1269 c3 -697 7 -1388 10
-1536 5 -254 5 -267 -13 -267 -12 0 -24 14 -36 40 -28 64 -113 120 -182 120
-72 0 -154 -55 -185 -125 -75 -164 102 -341 266 -266 46 20 102 79 111 116 6
23 10 25 70 25 l64 0 -5 1087 c-3 599 -8 1319 -11 1602 l-6 513 -230 255 -230
255 20 21 c50 53 67 158 36 220 -48 95 -139 138 -237 112z"/>
<path d="M21355 5353 c-45 -23 -81 -60 -100 -104 l-18 -39 -235 0 c-209 0
-233 -2 -228 -16 3 -9 6 -29 6 -45 l0 -29 230 0 230 0 14 -32 c17 -40 71 -93
109 -107 72 -27 174 -4 223 51 74 80 70 214 -7 285 -56 51 -163 69 -224 36z"/>
<path d="M16665 5338 c-83 -29 -138 -106 -138 -193 0 -133 130 -233 255 -196
50 15 114 73 130 117 l12 34 378 0 378 0 0 -724 0 -723 -48 -7 c-109 -14 -182
-97 -182 -207 0 -68 29 -122 88 -163 37 -26 53 -31 105 -31 44 0 74 6 102 21
106 55 140 212 64 299 l-30 34 -7 798 -7 798 -420 -4 -420 -4 -13 36 c-33 91
-154 147 -247 115z"/>
<path d="M19175 3916 c-38 -17 -90 -72 -104 -109 -15 -39 -14 -121 3 -160 12
-30 70 -90 95 -98 7 -3 13 -251 17 -811 l7 -808 -121 0 c-118 0 -122 1 -127
23 -3 12 -64 263 -135 557 -71 294 -126 536 -122 538 31 10 76 48 99 83 24 36
28 53 28 110 0 59 -4 73 -30 111 -52 74 -159 109 -242 77 -35 -13 -90 -64
-110 -104 -21 -39 -21 -131 0 -171 22 -42 89 -101 124 -108 34 -8 8 86 226
-816 l93 -385 203 -3 202 -2 -3 843 -3 844 41 11 c174 47 195 290 32 373 -44
22 -128 25 -173 5z"/>
</g>
</svg>
